<svg width="714" height="1016" viewBox="0 0 714 1016" fill="none" xmlns="http://www.w3.org/2000/svg">
  <g clip-path="url(#clip0_53_2349)">
    <path d="M699 0H15C6.71573 0 0 6.71573 0 15V1001C0 1009.28 6.71573 1016 15 1016H699C707.284 1016 714 1009.28 714 1001V15C714 6.71573 707.284 0 699 0Z" fill="#E2C6AC"/>
    <path d="M650.5 37H571.5C559.626 37 550 46.6259 550 58.5C550 70.3741 559.626 80 571.5 80H650.5C662.374 80 672 70.3741 672 58.5C672 46.6259 662.374 37 650.5 37Z" fill="#FEFEFE" fill-opacity="0.7"/>
    <path d="M644.665 45.2346C645.344 43.5885 647.656 43.5885 648.335 45.2346L651.487 52.8874L659.669 53.55C661.432 53.6921 662.145 55.9114 660.803 57.0715L654.569 62.4638L656.472 70.5224C656.883 72.2579 655.014 73.6289 653.506 72.7004L646.5 68.3811L639.494 72.7004C637.986 73.6289 636.117 72.2579 636.528 70.5224L638.431 62.4638L632.197 57.0715C630.855 55.9114 631.568 53.6921 633.333 53.55L641.513 52.8874L644.665 45.2346Z" fill="#504D4D"/>
    <path d="M610.665 45.2346C611.344 43.5885 613.656 43.5885 614.335 45.2346L617.487 52.8874L625.669 53.55C627.432 53.6921 628.145 55.9114 626.803 57.0715L620.569 62.4638L622.472 70.5224C622.883 72.2579 621.014 73.6289 619.506 72.7004L612.5 68.3811L605.494 72.7004C603.986 73.6289 602.117 72.2579 602.528 70.5224L604.431 62.4638L598.197 57.0715C596.855 55.9114 597.568 53.6921 599.333 53.55L607.513 52.8874L610.665 45.2346Z" fill="#504D4D"/>
    <path d="M576.665 45.2346C577.344 43.5885 579.656 43.5885 580.335 45.2346L583.487 52.8874L591.669 53.55C593.432 53.6921 594.145 55.9114 592.803 57.0715L586.569 62.4638L588.472 70.5224C588.883 72.2579 587.014 73.6289 585.506 72.7004L578.5 68.3811L571.494 72.7004C569.986 73.6289 568.117 72.2579 568.528 70.5224L570.431 62.4638L564.197 57.0715C562.855 55.9114 563.568 53.6921 565.333 53.55L573.513 52.8874L576.665 45.2346Z" fill="#504D4D"/>
    <path d="M37.5455 50.2273V47.7273H55V50.2273H47.6818V71H44.8636V50.2273H37.5455ZM61.6676 60.5V71H58.9858V47.7273H61.6676V56.2727H61.8949C62.304 55.3712 62.9176 54.6553 63.7358 54.125C64.5616 53.5871 65.66 53.3182 67.0312 53.3182C68.2206 53.3182 69.2623 53.5568 70.1562 54.0341C71.0502 54.5038 71.7434 55.2273 72.2358 56.2045C72.7358 57.1742 72.9858 58.4091 72.9858 59.9091V71H70.304V60.0909C70.304 58.7045 69.9441 57.6326 69.2244 56.875C68.5123 56.1098 67.5237 55.7273 66.2585 55.7273C65.3797 55.7273 64.5919 55.9129 63.8949 56.2841C63.2055 56.6553 62.66 57.197 62.2585 57.9091C61.8646 58.6212 61.6676 59.4848 61.6676 60.5ZM77.892 71V53.5455H80.5739V71H77.892ZM79.2557 50.6364C78.733 50.6364 78.2822 50.4583 77.9034 50.1023C77.5322 49.7462 77.3466 49.3182 77.3466 48.8182C77.3466 48.3182 77.5322 47.8902 77.9034 47.5341C78.2822 47.178 78.733 47 79.2557 47C79.7784 47 80.2254 47.178 80.5966 47.5341C80.9754 47.8902 81.1648 48.3182 81.1648 48.8182C81.1648 49.3182 80.9754 49.7462 80.5966 50.1023C80.2254 50.4583 79.7784 50.6364 79.2557 50.6364ZM97.8494 57.4545L95.4403 58.1364C95.2888 57.7348 95.0653 57.3447 94.7699 56.9659C94.482 56.5795 94.0881 56.2614 93.5881 56.0114C93.0881 55.7614 92.4479 55.6364 91.6676 55.6364C90.5994 55.6364 89.7093 55.8826 88.9972 56.375C88.2926 56.8598 87.9403 57.4773 87.9403 58.2273C87.9403 58.8939 88.1828 59.4205 88.6676 59.8068C89.1525 60.1932 89.91 60.5152 90.9403 60.7727L93.5312 61.4091C95.0919 61.7879 96.2547 62.3674 97.0199 63.1477C97.785 63.9205 98.1676 64.9167 98.1676 66.1364C98.1676 67.1364 97.8797 68.0303 97.304 68.8182C96.7358 69.6061 95.9403 70.2273 94.9176 70.6818C93.8949 71.1364 92.7055 71.3636 91.3494 71.3636C89.5691 71.3636 88.0956 70.9773 86.929 70.2045C85.7623 69.4318 85.0237 68.303 84.7131 66.8182L87.2585 66.1818C87.5009 67.1212 87.9593 67.8258 88.6335 68.2955C89.3153 68.7652 90.2055 69 91.304 69C92.554 69 93.5464 68.7348 94.2812 68.2045C95.0237 67.6667 95.3949 67.0227 95.3949 66.2727C95.3949 65.6667 95.1828 65.1591 94.7585 64.75C94.3343 64.3333 93.6828 64.0227 92.804 63.8182L89.8949 63.1364C88.2964 62.7576 87.1222 62.1705 86.3722 61.375C85.6297 60.572 85.2585 59.5682 85.2585 58.3636C85.2585 57.3788 85.535 56.5076 86.0881 55.75C86.6487 54.9924 87.41 54.3977 88.3722 53.9659C89.3419 53.5341 90.4403 53.3182 91.6676 53.3182C93.3949 53.3182 94.7509 53.697 95.7358 54.4545C96.7282 55.2121 97.4328 56.2121 97.8494 57.4545ZM111.205 71V53.5455H113.886V71H111.205ZM112.568 50.6364C112.045 50.6364 111.595 50.4583 111.216 50.1023C110.845 49.7462 110.659 49.3182 110.659 48.8182C110.659 48.3182 110.845 47.8902 111.216 47.5341C111.595 47.178 112.045 47 112.568 47C113.091 47 113.538 47.178 113.909 47.5341C114.288 47.8902 114.477 48.3182 114.477 48.8182C114.477 49.3182 114.288 49.7462 113.909 50.1023C113.538 50.4583 113.091 50.6364 112.568 50.6364ZM131.162 57.4545L128.753 58.1364C128.601 57.7348 128.378 57.3447 128.082 56.9659C127.795 56.5795 127.401 56.2614 126.901 56.0114C126.401 55.7614 125.76 55.6364 124.98 55.6364C123.912 55.6364 123.022 55.8826 122.31 56.375C121.605 56.8598 121.253 57.4773 121.253 58.2273C121.253 58.8939 121.495 59.4205 121.98 59.8068C122.465 60.1932 123.223 60.5152 124.253 60.7727L126.844 61.4091C128.404 61.7879 129.567 62.3674 130.332 63.1477C131.098 63.9205 131.48 64.9167 131.48 66.1364C131.48 67.1364 131.192 68.0303 130.616 68.8182C130.048 69.6061 129.253 70.2273 128.23 70.6818C127.207 71.1364 126.018 71.3636 124.662 71.3636C122.882 71.3636 121.408 70.9773 120.241 70.2045C119.075 69.4318 118.336 68.303 118.026 66.8182L120.571 66.1818C120.813 67.1212 121.272 67.8258 121.946 68.2955C122.628 68.7652 123.518 69 124.616 69C125.866 69 126.859 68.7348 127.594 68.2045C128.336 67.6667 128.707 67.0227 128.707 66.2727C128.707 65.6667 128.495 65.1591 128.071 64.75C127.647 64.3333 126.995 64.0227 126.116 63.8182L123.207 63.1364C121.609 62.7576 120.435 62.1705 119.685 61.375C118.942 60.572 118.571 59.5682 118.571 58.3636C118.571 57.3788 118.848 56.5076 119.401 55.75C119.961 54.9924 120.723 54.3977 121.685 53.9659C122.654 53.5341 123.753 53.3182 124.98 53.3182C126.707 53.3182 128.063 53.697 129.048 54.4545C130.041 55.2121 130.745 56.2121 131.162 57.4545ZM152.29 53.5455V55.8182H142.881V53.5455H152.29ZM145.699 71V51.1364C145.699 50.1364 145.934 49.303 146.403 48.6364C146.873 47.9697 147.483 47.4697 148.233 47.1364C148.983 46.803 149.775 46.6364 150.608 46.6364C151.267 46.6364 151.805 46.6894 152.222 46.7955C152.638 46.9015 152.949 47 153.153 47.0909L152.381 49.4091C152.244 49.3636 152.055 49.3068 151.812 49.2386C151.578 49.1705 151.267 49.1364 150.881 49.1364C149.994 49.1364 149.354 49.3598 148.96 49.8068C148.574 50.2538 148.381 50.9091 148.381 51.7727V71H145.699ZM156.048 71V53.5455H158.73V71H156.048ZM157.412 50.6364C156.889 50.6364 156.438 50.4583 156.06 50.1023C155.688 49.7462 155.503 49.3182 155.503 48.8182C155.503 48.3182 155.688 47.8902 156.06 47.5341C156.438 47.178 156.889 47 157.412 47C157.935 47 158.382 47.178 158.753 47.5341C159.132 47.8902 159.321 48.3182 159.321 48.8182C159.321 49.3182 159.132 49.7462 158.753 50.1023C158.382 50.4583 157.935 50.6364 157.412 50.6364ZM166.324 60.5V71H163.642V53.5455H166.233V56.2727H166.46C166.869 55.3864 167.491 54.6742 168.324 54.1364C169.157 53.5909 170.233 53.3182 171.551 53.3182C172.733 53.3182 173.767 53.5606 174.653 54.0455C175.54 54.5227 176.229 55.25 176.722 56.2273C177.214 57.197 177.46 58.4242 177.46 59.9091V71H174.778V60.0909C174.778 58.7197 174.422 57.6515 173.71 56.8864C172.998 56.1136 172.021 55.7273 170.778 55.7273C169.922 55.7273 169.157 55.9129 168.483 56.2841C167.816 56.6553 167.29 57.197 166.903 57.9091C166.517 58.6212 166.324 59.4848 166.324 60.5ZM189.679 71.3636C187.997 71.3636 186.546 70.9924 185.327 70.25C184.115 69.5 183.179 68.4545 182.52 67.1136C181.868 65.7652 181.543 64.197 181.543 62.4091C181.543 60.6212 181.868 59.0455 182.52 57.6818C183.179 56.3106 184.096 55.2424 185.27 54.4773C186.452 53.7045 187.83 53.3182 189.406 53.3182C190.315 53.3182 191.213 53.4697 192.099 53.7727C192.986 54.0758 193.793 54.5682 194.52 55.25C195.247 55.9242 195.827 56.8182 196.259 57.9318C196.69 59.0455 196.906 60.4167 196.906 62.0455V63.1818H183.452V60.8636H194.179C194.179 59.8788 193.982 59 193.588 58.2273C193.202 57.4545 192.649 56.8447 191.929 56.3977C191.217 55.9508 190.376 55.7273 189.406 55.7273C188.338 55.7273 187.414 55.9924 186.634 56.5227C185.861 57.0455 185.266 57.7273 184.849 58.5682C184.433 59.4091 184.224 60.3106 184.224 61.2727V62.8182C184.224 64.1364 184.452 65.2538 184.906 66.1705C185.368 67.0795 186.009 67.7727 186.827 68.25C187.645 68.7197 188.596 68.9545 189.679 68.9545C190.384 68.9545 191.02 68.8561 191.588 68.6591C192.164 68.4545 192.66 68.1515 193.077 67.75C193.493 67.3409 193.815 66.8333 194.043 66.2273L196.634 66.9545C196.361 67.8333 195.902 68.6061 195.259 69.2727C194.615 69.9318 193.819 70.447 192.872 70.8182C191.925 71.1818 190.861 71.3636 189.679 71.3636ZM202.94 71.1818C202.38 71.1818 201.899 70.9811 201.497 70.5795C201.096 70.178 200.895 69.697 200.895 69.1364C200.895 68.5758 201.096 68.0947 201.497 67.6932C201.899 67.2917 202.38 67.0909 202.94 67.0909C203.501 67.0909 203.982 67.2917 204.384 67.6932C204.785 68.0947 204.986 68.5758 204.986 69.1364C204.986 69.5076 204.891 69.8485 204.702 70.1591C204.52 70.4697 204.274 70.7197 203.963 70.9091C203.66 71.0909 203.319 71.1818 202.94 71.1818ZM211.668 71.1818C211.107 71.1818 210.626 70.9811 210.224 70.5795C209.823 70.178 209.622 69.697 209.622 69.1364C209.622 68.5758 209.823 68.0947 210.224 67.6932C210.626 67.2917 211.107 67.0909 211.668 67.0909C212.228 67.0909 212.709 67.2917 213.111 67.6932C213.512 68.0947 213.713 68.5758 213.713 69.1364C213.713 69.5076 213.618 69.8485 213.429 70.1591C213.247 70.4697 213.001 70.7197 212.69 70.9091C212.387 71.0909 212.046 71.1818 211.668 71.1818ZM220.395 71.1818C219.834 71.1818 219.353 70.9811 218.952 70.5795C218.55 70.178 218.349 69.697 218.349 69.1364C218.349 68.5758 218.55 68.0947 218.952 67.6932C219.353 67.2917 219.834 67.0909 220.395 67.0909C220.955 67.0909 221.437 67.2917 221.838 67.6932C222.24 68.0947 222.44 68.5758 222.44 69.1364C222.44 69.5076 222.346 69.8485 222.156 70.1591C221.974 70.4697 221.728 70.7197 221.418 70.9091C221.115 71.0909 220.774 71.1818 220.395 71.1818Z" fill="black"/>
    <path d="M677 114H37V754H677V114Z" fill="black" fill-opacity="0.1"/>
    <g clip-path="url(#clip1_53_2349)">
      <path d="M37 164H47V174H37V164ZM47 174H57V184H47V174ZM57 174H67V184H57V174ZM67 174H77V184H67V174ZM77 174H87V184H77V174ZM87 174H97V184H87V174ZM97 174H107V184H97V174ZM107 174H117V184H107V174ZM117 174H127V184H117V174ZM127 164H137V174H127V164ZM137 164H147V174H137V164ZM147 164H157V174H147V164ZM157 154H167V164H157V154ZM167 154H177V164H167V154ZM177 154H187V164H177V154ZM177 144H187V154H177V144ZM187 144H197V154H187V144ZM197 134H207V144H197V134ZM207 134H217V144H207V134ZM217 124H227V134H217V124ZM77 124H87V134H77V124ZM67 134H77V144H67V134ZM57 134H67V144H57V134ZM47 134H57V144H47V134ZM37 124H47V134H37V124ZM197 154H207V164H197V154ZM207 164H217V174H207V164ZM217 164H227V174H217V164ZM227 164H237V174H227V164ZM237 164H247V174H237V164ZM247 164H257V174H247V164ZM257 164H267V174H257V164ZM267 164H277V174H267V164ZM277 164H287V174H277V164ZM287 164H297V174H287V164ZM297 164H307V174H297V164ZM307 164H317V174H307V164ZM317 154H327V164H317V154ZM327 154H337V164H327V154ZM337 144H347V154H337V144ZM337 154H347V164H337V154ZM347 144H357V154H347V144ZM357 134H367V144H357V134ZM367 134H377V144H367V134ZM377 124H387V134H377V124ZM387 114H397V124H387V114ZM357 144H367V154H357V144ZM347 164H357V174H347V164ZM357 164H367V174H357V164ZM367 174H377V184H367V174ZM377 174H387V184H377V174ZM387 174H397V184H387V174ZM397 174H407V184H397V174ZM407 174H417V184H407V174ZM417 174H427V184H417V174ZM427 164H437V174H427V164ZM437 164H447V174H437V164ZM447 154H457V164H447V154ZM457 154H467V164H457V154ZM467 144H477V154H467V144ZM477 154H487V164H477V154ZM487 164H497V174H487V164ZM497 164H507V174H497V164ZM507 174H517V184H507V174ZM517 174H527V184H517V174ZM527 174H537V184H527V174ZM537 174H547V184H537V174ZM547 174H557V184H547V174ZM557 174H567V184H557V174ZM567 174H577V184H567V174ZM577 164H587V174H577V164ZM587 164H597V174H587V164ZM597 164H607V174H597V164ZM607 154H617V164H607V154ZM617 154H627V164H617V154ZM627 144H637V154H627V144ZM617 134H627V144H617V134ZM647 184H657V194H647V184ZM637 214H647V224H637V214ZM577 184H587V194H577V184ZM577 194H587V204H577V194ZM567 194H577V204H567V194ZM567 204H577V214H567V204ZM557 204H567V214H557V204ZM547 204H557V214H547V204ZM547 214H557V224H547V214ZM557 224H567V234H557V224ZM567 224H577V234H567V224ZM577 224H587V234H577V224ZM577 234H587V244H577V234ZM537 214H547V224H537V214ZM527 214H537V224H527V214ZM517 224H527V234H517V224ZM507 224H517V234H507V224ZM497 224H507V234H497V224ZM487 224H497V234H487V224ZM477 214H487V224H477V214ZM467 214H477V224H467V214ZM457 204H467V214H457V204ZM477 534H487V544H477V534ZM487 524H497V534H487V524ZM487 544H497V554H487V544ZM497 554H507V564H497V554ZM507 554H517V564H507V554ZM517 554H527V564H517V554ZM527 554H537V564H527V554ZM537 554H547V564H537V554ZM547 564H557V574H547V564ZM557 564H567V574H557V564ZM567 564H577V574H567V564ZM577 564H587V574H577V564ZM587 564H597V574H587V564ZM597 564H607V574H597V564ZM607 564H617V574H607V564ZM617 564H627V574H617V564ZM627 564H637V574H627V564ZM637 574H647V584H637V574ZM647 574H657V584H647V574ZM657 574H667V584H657V574ZM667 574H677V584H667V574ZM667 504H677V514H667V504ZM657 504H667V514H657V504ZM647 504H657V514H647V504ZM637 504H647V514H637V504ZM627 504H637V514H627V504ZM617 504H627V514H617V504ZM577 464H587V544H577V464ZM497 524H507V534H497V524ZM507 514H517V524H507V514ZM517 514H527V524H517V514ZM587 484H597V494H587V484ZM597 484H607V494H597V484ZM607 494H617V504H607V494ZM607 504H617V514H607V504ZM607 514H617V524H607V514ZM597 524H607V534H597V524ZM587 524H597V534H587V524ZM537 474H547V484H537V474ZM537 534H577V544H537V534ZM537 484H577V494H537V484ZM537 464H577V474H537V464ZM527 474H537V544H527V474ZM477 544H487V554H477V544ZM477 554H487V564H477V554ZM477 564H487V574H477V564ZM487 574H497V584H487V574ZM497 584H507V594H497V584ZM507 584H517V594H507V584ZM517 584H527V594H517V584ZM527 584H537V594H527V584ZM527 594H537V604H527V594ZM537 594H547V604H537V594ZM547 594H557V604H547V594ZM547 604H557V614H547V604ZM547 614H557V624H547V614ZM547 624H557V634H547V624ZM547 634H557V644H547V634ZM547 644H557V654H547V644ZM527 604H537V614H527V604ZM527 614H537V624H527V614ZM527 624H537V634H527V624ZM527 634H537V644H527V634ZM527 644H537V654H527V644ZM527 654H537V664H527V654ZM527 664H537V674H527V664ZM507 674H517V684H507V674ZM517 674H527V684H517V674ZM537 654H547V664H537V654ZM557 634H567V644H557V634ZM567 624H577V634H567V624ZM577 604H587V614H577V604ZM567 614H577V624H567V614ZM497 684H507V694H497V684ZM487 694H497V704H487V694ZM477 704H487V714H477V704ZM477 714H487V724H477V714ZM467 724H477V734H467V724ZM467 734H477V744H467V734ZM467 744H477V754H467V744ZM557 594H567V604H557V594ZM567 594H577V604H567V594ZM577 594H587V604H577V594ZM587 594H597V604H587V594ZM597 594H607V604H597V594ZM607 594H617V604H607V594ZM637 604H647V614H637V604ZM647 604H657V614H647V604ZM657 604H667V614H657V604ZM667 604H677V614H667V604ZM627 604H637V614H627V604ZM637 614H647V624H637V614ZM637 624H647V634H637V624ZM647 614H657V624H647V614ZM657 614H667V624H657V614ZM617 594H627V604H617V594ZM587 604H597V614H587V604ZM587 614H597V624H587V614ZM587 624H597V634H587V624ZM587 634H597V644H587V634ZM587 644H597V654H587V644ZM587 654H597V664H587V654ZM587 664H597V674H587V664ZM587 674H597V684H587V674ZM587 684H597V694H587V684ZM587 694H597V704H587V694ZM597 684H607V694H597V684ZM557 674H567V684H557V674ZM557 684H567V694H557V684ZM547 684H557V694H547V684ZM537 694H547V704H537V694ZM557 694H567V704H557V694ZM567 704H577V714H567V704ZM567 714H577V724H567V714ZM577 724H587V734H577V724ZM587 724H597V734H587V724ZM597 734H607V744H597V734ZM607 734H617V744H607V734ZM607 724H617V734H607V724ZM617 714H627V724H617V714ZM627 714H637V724H627V714ZM627 704H637V714H627V704ZM637 694H647V704H637V694ZM647 684H657V694H647V684ZM657 674H667V684H657V674ZM667 664H677V674H667V664ZM527 704H537V714H527V704ZM517 714H527V724H517V714ZM507 724H517V734H507V724ZM507 734H517V744H507V734ZM497 744H507V754H497V744ZM607 674H617V684H607V674ZM607 664H617V674H607V664ZM617 654H627V664H617V654ZM627 654H637V664H627V654ZM627 644H637V654H627V644ZM637 644H647V654H637V644ZM637 634H647V644H637V634ZM647 634H657V644H647V634ZM647 624H657V634H647V624ZM657 624H667V634H657V624ZM667 614H677V624H667V614ZM457 214H467V224H457V214ZM447 214H457V224H447V214ZM437 224H447V234H437V224ZM427 224H437V234H427V224ZM417 224H427V234H417V224ZM407 224H417V234H407V224ZM397 224H407V234H397V224ZM387 214H397V224H387V214ZM377 214H387V224H377V214ZM367 204H377V214H367V204ZM357 194H367V204H357V194ZM347 204H357V214H347V204ZM337 204H347V214H337V204ZM327 204H337V214H327V204ZM317 214H327V224H317V214ZM307 214H317V224H307V214ZM297 204H307V214H297V204ZM287 204H297V214H287V204ZM277 204H287V214H277V204ZM267 194H277V204H267V194ZM257 194H267V204H257V194ZM257 184H267V194H257V184ZM267 204H277V214H267V204ZM257 214H267V224H257V214ZM247 214H257V224H247V214ZM237 214H247V224H237V214ZM237 224H247V234H237V224ZM227 224H237V234H227V224ZM217 224H227V234H217V224ZM207 224H217V234H207V224ZM197 234H207V244H197V234ZM187 234H197V244H187V234ZM177 234H187V244H177V234ZM167 234H177V244H167V234ZM157 224H167V234H157V224ZM147 224H157V234H147V224ZM137 214H147V224H137V214ZM137 234H147V244H137V234ZM127 234H137V244H127V234ZM117 234H127V244H117V234ZM107 234H117V244H107V234ZM97 234H107V244H97V234ZM87 224H97V234H87V224ZM77 304H87V314H77V304ZM117 424H127V434H117V424ZM127 504H137V514H127V504ZM127 514H137V524H127V514ZM117 524H127V534H117V524ZM117 534H127V544H117V534ZM107 544H117V554H107V544ZM107 554H117V564H107V554ZM107 564H117V574H107V564ZM107 574H117V584H107V574ZM127 564H137V604H127V564ZM117 604H127V644H117V604ZM127 644H137V684H127V644ZM137 524H147V564H137V524ZM147 484H157V494H147V484ZM147 474H157V484H147V474ZM147 464H157V474H147V464ZM127 434H137V444H127V434ZM97 584H107V594H97V584ZM187 614H197V624H187V614ZM187 624H197V634H187V624ZM187 634H197V644H187V634ZM207 684H217V694H207V684ZM217 674H227V684H217V674ZM207 694H217V704H207V694ZM197 644H207V684H197V644ZM177 674H187V684H177V674ZM167 684H177V694H167V684ZM167 694H177V704H167V694ZM157 704H167V714H157V704ZM117 704H127V714H117V704ZM107 724H117V734H107V724ZM77 724H87V734H77V724ZM77 734H87V744H77V734ZM97 714H107V724H97V714ZM97 704H107V714H97V704ZM87 694H97V704H87V694ZM107 654H117V704H107V654ZM67 674H77V724H67V674ZM137 684H147V694H137V684ZM147 694H157V704H147V694ZM187 684H197V694H187V684ZM187 694H197V704H187V694ZM197 714H207V724H197V714ZM187 704H197V714H187V704ZM167 664H177V674H167V664ZM167 634H177V644H167V634ZM177 624H187V634H177V624ZM157 654H167V664H157V654ZM157 644H167V654H157V644ZM547 394H557V454H547V394ZM507 314H517V324H507V314ZM497 324H507V334H497V324ZM477 324H487V334H477V324ZM477 314H487V324H477V314ZM487 304H497V314H487V304ZM487 294H497V304H487V294ZM497 284H507V294H497V284ZM497 274H507V284H497V274ZM507 264H517V274H507V264ZM507 254H517V264H507V254ZM487 254H497V264H487V254ZM477 264H487V274H477V264ZM477 274H487V284H477V274ZM457 244H467V344H457V244ZM527 244H537V344H527V244ZM457 344H537V354H457V344ZM457 234H537V244H457V234ZM547 224H557V374H547V224ZM447 374H547V384H447V374ZM437 234H447V374H437V234ZM467 514H477V524H467V514ZM467 504H477V514H467V504ZM537 404H547V414H537V404ZM657 404H667V464H657V404ZM627 404H637V414H627V404ZM657 334H667V344H657V334ZM667 344H677V354H667V344ZM637 314H647V324H637V314ZM627 414H637V424H627V414ZM617 424H627V434H617V424ZM617 434H627V444H617V434ZM607 444H617V454H607V444ZM607 454H617V464H607V454ZM597 464H607V484H597V464ZM647 414H657V424H647V414ZM637 434H647V444H637V434ZM637 444H647V454H637V444ZM627 454H637V464H627V454ZM637 364H647V404H637V364ZM527 444H537V454H527V444ZM517 464H527V474H517V464ZM507 474H517V484H507V474ZM497 484H507V494H497V484ZM497 494H507V504H497V494ZM487 504H497V514H487V504ZM557 454H567V464H557V454ZM527 414H537V424H527V414ZM527 424H537V434H527V424ZM517 434H527V444H517V434ZM507 444H517V454H507V444ZM497 454H507V464H497V454ZM487 474H497V484H487V474ZM497 464H507V474H497V464ZM477 484H487V504H477V484ZM457 494H467V504H457V494ZM447 504H457V614H447V504ZM417 644H427V654H417V644ZM467 634H477V644H467V634Z" fill="#302F2D"/>
      <path d="M467 634H477V644H467V634ZM477 634H487V644H477V634ZM487 624H497V634H487V624ZM427 634H437V644H427V634ZM437 624H447V634H437V624ZM437 614H447V624H437V614ZM197 734H227V744H197V734ZM177 744H197V754H177V744ZM87 534H97V544H87V534ZM87 574H97V584H87V574ZM77 564H87V574H77V564ZM77 554H87V564H77V554ZM67 504H77V554H67V504ZM47 474H57V484H47V474ZM177 364H187V374H177V364ZM207 394H217V404H207V394ZM207 434H217V444H207V434ZM197 424H207V434H197V424ZM187 414H197V424H187V414ZM187 404H197V414H187V404ZM177 394H187V404H177V394ZM177 384H187V394H177V384ZM177 374H187V384H177V374ZM167 374H177V384H167V374ZM157 384H167V394H157V384ZM147 394H157V404H147V394ZM227 384H237V394H227V384ZM227 394H237V404H227V394ZM217 414H227V424H217V414ZM227 404H237V414H227V404ZM217 424H227V434H217V424ZM237 414H247V424H237V414ZM237 394H247V404H237V394ZM257 394H267V404H257V394ZM267 404H277V414H267V404ZM267 414H277V424H267V414ZM247 384H257V394H247V384ZM267 424H277V434H267V424ZM277 434H287V444H277V434ZM217 384H227V394H217V384ZM217 374H227V384H217V374ZM217 364H227V374H217V364ZM227 354H237V364H227V354ZM227 344H237V354H227V344ZM197 314H207V394H197V314ZM187 324H197V334H187V324ZM177 324H187V334H177V324ZM167 334H177V344H167V334ZM157 344H167V354H157V344ZM157 354H167V364H157V354ZM147 364H157V374H147V364ZM137 264H147V464H137V264ZM157 494H167V574H157V494ZM147 574H157V644H147V574ZM227 664H237V734H227V664ZM307 264H317V634H307V264ZM297 264H307V624H297V264ZM287 264H297V614H287V264ZM647 324H657V364H647V324ZM667 464H677V474H667V464ZM227 334H237V344H227V334ZM237 344H247V354H237V344ZM247 354H257V364H247V354ZM247 364H257V374H247V364ZM257 374H267V384H257V374ZM267 384H277V394H267V384ZM277 384H287V394H277V384ZM67 414H77V464H67V414ZM47 404H57V414H47V404ZM37 394H47V404H37V394ZM47 394H57V404H47V394ZM47 384H57V394H47V384ZM57 374H67V384H57V374ZM57 364H67V374H57V364ZM57 354H67V364H57V354ZM67 344H77V354H67V344ZM67 334H77V344H67V334ZM77 324H87V334H77V324ZM77 314H87V324H77V314ZM87 324H97V334H87V324ZM87 334H97V344H87V334ZM87 344H97V354H87V344ZM87 354H97V364H87V354ZM87 364H97V374H87V364ZM97 374H107V384H97V374ZM147 264H217V274H147V264ZM217 254H307V264H217V254ZM317 624H437V634H317V624ZM97 384H107V394H97V384ZM97 394H107V404H97V394ZM87 404H97V414H87V404ZM87 414H97V424H87V414ZM87 424H97V434H87V424ZM87 434H97V444H87V434ZM87 444H97V454H87V444ZM87 454H97V464H87V454ZM77 464H87V474H77V464ZM77 474H87V484H77V474ZM77 484H87V494H77V484ZM77 494H87V504H77V494ZM87 504H97V514H87V504ZM87 514H97V524H87V514ZM87 524H97V534H87V524ZM97 514H107V524H97V514ZM107 504H117V514H107V504ZM107 494H117V504H107V494ZM107 484H117V494H107V484ZM117 474H127V484H117V474ZM117 464H127V474H117V464ZM117 454H127V464H117V454ZM117 444H127V454H117V444ZM117 434H127V444H117V434ZM57 424H67V434H57V424ZM57 434H67V444H57V434ZM57 474H67V484H57V474ZM57 484H67V494H57V484ZM57 494H67V504H57V494ZM47 444H57V454H47V444ZM47 454H57V464H47V454ZM47 464H57V474H47V464ZM37 464H47V474H37V464ZM87 234H97V244H87V234ZM77 234H87V244H77V234ZM67 244H77V254H67V244ZM57 244H67V254H57V244ZM47 244H57V254H47V244ZM37 244H47V254H37V244ZM127 204H137V214H127V204ZM127 194H137V204H127V194ZM627 224H637V234H627V224ZM617 234H627V244H617V234ZM617 224H627V234H617V224ZM607 234H617V244H607V234ZM597 234H607V244H597V234ZM587 234H597V244H587V234ZM647 224H657V234H647V224ZM657 224H667V234H657V224ZM667 224H677V234H667V224ZM657 194H667V204H657V194ZM667 194H677V204H667V194ZM637 144H647V154H637V144ZM647 154H657V164H647V154ZM657 154H667V164H657V154ZM667 154H677V164H667V154Z" fill="#302F2D"/>
      <path d="M197 744H467V754H197V744ZM227 734H467V744H227V734ZM237 724H467V734H237V724ZM237 714H477V724H237V714ZM237 704H477V714H237V704ZM237 694H487V704H237V694ZM237 684H497V694H237V684ZM237 674H507V684H237V674ZM237 664H527V674H237V664ZM207 654H527V664H207V654ZM197 594H287V604H197V594ZM197 614H297V624H197V614ZM197 624H307V634H197V624ZM197 634H427V644H197V634ZM207 644H417V654H207V644ZM157 604H287V614H157V604ZM207 674H217V684H207V674ZM207 664H227V674H207V664ZM157 624H177V634H157V624ZM157 634H167V644H157V634ZM157 614H187V624H157V614Z" fill="#85634B"/>
      <path d="M37 474H47V754H37V474Z" fill="#FFBE16"/>
      <path d="M37 404H47V464H37V404ZM47 414H57V444H47V414ZM57 384H67V424H57V384ZM67 354H77V414H67V354ZM67 464H77V504H67V464ZM57 444H67V474H57V444ZM77 504H87V554H77V504ZM97 524H107V584H97V524ZM87 544H97V574H87V544ZM107 514H117V544H107V514ZM127 444H137V504H127V444ZM187 334H197V404H187V334ZM197 394H207V424H197V394ZM207 404H217V434H207V404ZM217 394H227V414H217V394ZM177 334H187V364H177V334ZM167 344H177V374H167V344ZM157 364H167V384H157V364ZM147 374H157V394H147V374ZM237 354H247V394H237V354ZM227 364H237V394H227V364ZM247 374H257V384H247V374ZM257 384H267V394H257V384ZM267 394H277V404H267V394ZM277 394H287V434H277V394ZM117 484H127V524H117V484ZM137 464H147V524H137V464ZM147 494H157V574H147V494ZM137 564H147V686H137V564ZM127 604H137V644H127V604ZM147 644H157V694H147V644ZM157 664H167V704H157V664ZM187 644H197V684H187V644ZM487 704H497V754H487V704ZM497 694H507V744H497V694ZM507 684H517V724H507V684ZM517 684H527V714H517V684ZM527 674H537V704H527V674ZM537 664H547V694H537V664ZM547 654H557V684H547V654ZM557 644H567V674H557V644ZM577 614H587V724H577V614ZM567 634H577V704H567V634ZM617 664H627V714H617V664ZM627 664H637V704H627V664ZM637 654H647V694H637V654ZM647 644H657V684H647V644ZM657 634H667V674H657V634ZM667 624H677V664H667V624ZM657 344H667V404H657V344ZM667 354H677V464H667V354ZM647 364H657V414H647V364ZM637 404H647V434H637V404ZM627 424H637V454H627V424ZM617 444H627V484H617V444ZM477 504H487V534H477V504ZM487 484H497V504H487V484ZM497 474H507V484H497V474ZM507 454H517V474H507V454ZM517 444H527V464H517V444ZM527 434H537V444H527V434ZM537 414H547V464H537V414ZM457 504H467V644H457V504ZM467 524H477V634H467V524ZM447 614H457V654H447V614ZM437 634H447V654H437V634ZM427 644H437V654H427V644ZM607 464H617V494H607V464ZM607 684H617V724H607V684ZM597 694H607V734H597V694ZM587 704H597V724H587V704ZM177 634H187V674H177V634ZM167 674H177V684H167V674ZM167 644H177V664H167V644ZM77 334H87V464H77V334ZM87 374H97V404H87V374Z" fill="#FF9416"/>
      <path d="M47 484H57V754H47V484ZM57 504H67V754H57V504ZM67 554H77V674H67V554ZM77 574H87V724H77V574ZM87 584H97V694H87V584ZM97 594H107V704H97V594ZM107 584H117V654H107V584ZM117 544H127V604H117V544ZM127 524H137V564H127V524ZM177 404H187V604H177V404ZM187 424H197V604H187V424ZM197 434H207V594H197V434ZM207 444H217V594H207V444ZM217 434H227V594H217V434ZM227 414H237V594H227V414ZM257 404H267V594H257V404ZM277 444H287V594H277V444ZM267 434H277V594H267V434ZM247 394H257V594H247V394ZM237 424H247V594H237V424ZM237 404H247V414H237V404ZM167 384H177V604H167V384ZM157 394H167V494H157V394ZM147 404H157V464H147V404ZM117 644H127V704H117V644ZM127 684H137V754H127V684ZM137 694H147V754H137V694ZM147 704H157V754H147V704ZM167 704H177V754H167V704ZM157 714H167V754H157V714ZM177 684H187V744H177V684ZM217 684H227V734H217V684ZM547 694H557V754H547V694ZM537 704H547V754H537V704ZM527 714H537V754H527V714ZM517 724H527V754H517V724ZM557 704H567V754H557V704ZM197 684H207V714H197V684ZM207 704H217V734H207V704ZM187 714H197V744H187V714ZM117 714H127V754H117V714ZM87 704H97V754H87V704ZM197 724H207V734H197V724Z" fill="#FFBE16"/>
      <path d="M37 114H387V124H37V114ZM47 124H77V134H47V124ZM77 134H197V144H77V134ZM37 144H177V154H37V144ZM37 134H47V144H37V134ZM37 174H47V184H37V174ZM187 154H197V164H187V154ZM317 164H347V174H317V164ZM307 204H327V214H307V204ZM277 194H357V204H277V194ZM37 154H157V164H37V154ZM47 164H127V174H47V164ZM87 124H217V134H87V124ZM397 114H677V124H397V114ZM387 124H677V134H387V124ZM377 134H617V144H377V134ZM477 144H627V154H477V144ZM487 154H607V164H487V154ZM507 164H577V174H507V164ZM347 154H447V164H347V154ZM367 144H467V154H367V144ZM367 164H427V174H367V164ZM427 174H507V184H427V174ZM267 184H577V194H267V184Z" fill="#9C887F"/>
      <path d="M407 704H417V714H407V704ZM417 704H427V714H417V704ZM427 694H437V704H427V694ZM377 664H387V674H377V664ZM367 674H377V684H367V674ZM287 694H297V704H287V694ZM297 684H307V694H297V684ZM307 674H317V684H307V674ZM217 614H227V624H217V614ZM227 624H237V634H227V624ZM237 614H247V624H237V614ZM437 694H447V704H437V694Z" fill="#302F2D"/>
      <path d="M477 724H487V754H477V724Z" fill="#FF9416"/>
      <path d="M627 134H677V144H627V134ZM607 164H677V174H607V164ZM447 164H487V174H447V164ZM467 154H477V164H467V154ZM367 194H567V204H367V194ZM377 204H457V214H377V204ZM467 204H547V214H467V204ZM487 214H527V224H487V214ZM397 214H447V224H397V214ZM127 174H367V184H127V174ZM37 184H257V194H37V184ZM37 194H127V204H37V194ZM37 204H127V214H37V204ZM37 214H137V224H37V214ZM97 224H147V234H97V224ZM37 224H87V234H37V224ZM37 234H77V244H37V234ZM157 164H207V174H157V164ZM137 194H257V204H137V194ZM137 204H267V214H137V204ZM147 214H237V224H147V214ZM167 224H207V234H167V224ZM227 124H379V134H227V124ZM217 134H357V144H217V134ZM197 144H337V154H197V144ZM207 154H317V164H207V154ZM647 144H677V154H647V144ZM627 154H647V164H627V154ZM647 214H677V224H647V214ZM587 224H617V234H587V224ZM577 174H677V184H577V174ZM577 204H677V214H577V204ZM557 214H637V224H557V214ZM587 194H657V204H587V194ZM657 184H677V194H657V184ZM587 184H647V194H587V184Z" fill="#9C887F"/>
      <path d="M507 744H517V754H507V744ZM157 574H167V604H157V574ZM567 724H577V754H567V724ZM577 734H587V754H577V734ZM587 734H597V754H587V734ZM617 724H627V754H617V724ZM667 674H677V754H667V674ZM647 424H657V504H647V424ZM637 454H647V504H637V454ZM627 464H637V504H627V464ZM617 484H627V504H617V484ZM517 594H527V654H517V594ZM507 594H517V654H507V594ZM497 594H507V654H497V594ZM527 454H537V474H527V454ZM547 454H557V464H547V454ZM517 474H527V514H517V474ZM507 484H517V514H507V484ZM497 504H507V524H497V504ZM487 514H497V524H487V514ZM477 574H487V634H477V574ZM487 634H497V644H487V634ZM487 584H497V624H487V584ZM457 644H497V654H457V644ZM657 464H667V504H657V464ZM667 474H677V504H667V474ZM657 684H667V754H657V684ZM647 694H657V754H647V694ZM597 604H607V684H597V604ZM607 604H617V664H607V604ZM617 604H627V654H617V604ZM627 614H637V644H627V614ZM567 604H577V614H567V604ZM557 604H567V634H557V604ZM637 704H647V754H637V704ZM627 724H637V754H627V724ZM597 744H617V754H597V744ZM97 724H107V754H97V724ZM107 734H117V754H107V734ZM107 704H117V724H107V704ZM67 724H77V754H67V724ZM77 744H87V754H77V744Z" fill="#FFBE16"/>
      <path d="M317 224H327V624H317V224ZM127 244H137V434H127V244ZM117 244H127V424H117V244ZM107 244H117V484H107V244ZM97 244H107V374H97V244ZM97 404H107V514H97V404ZM87 464H97V504H87V464ZM37 254H47V394H37V254ZM47 254H57V384H47V254ZM57 254H67V354H57V254ZM67 254H77V334H67V254ZM87 244H97V324H87V244ZM77 244H87V304H77V244ZM307 224H317V264H307V224ZM297 214H307V254H297V214ZM287 214H297V254H287V214ZM277 214H287V254H277V214ZM267 214H277V254H267V214ZM257 224H267V254H257V224ZM247 224H257V254H247V224ZM207 234H217V264H207V234ZM217 234H227V254H217V234ZM227 234H237V254H227V234ZM237 234H247V254H237V234ZM197 244H207V264H197V244ZM147 234H157V264H147V234ZM157 234H167V264H157V234ZM137 244H147V264H137V244ZM167 244H177V264H167V244ZM177 244H187V264H177V244ZM187 244H197V264H187V244ZM327 214H337V624H327V214ZM337 214H347V624H337V214ZM347 214H357V624H347V214ZM357 204H367V624H357V204ZM367 214H377V624H367V214ZM377 224H387V624H377V224ZM387 224H397V624H387V224ZM397 234H407V624H397V234ZM407 234H417V624H407V234ZM417 234H427V624H417V234ZM427 234H437V624H427V234ZM437 374H447V614H437V374ZM447 384H457V504H447V384ZM467 384H477V504H467V384ZM457 384H467V494H457V384ZM477 384H487V484H477V384ZM487 384H497V474H487V384ZM497 384H507V454H497V384ZM507 384H517V444H507V384ZM517 384H527V434H517V384ZM527 384H537V414H527V384ZM537 384H547V404H537V384ZM547 374H557V394H547V374ZM557 234H567V454H557V234ZM567 234H577V464H567V234ZM577 244H587V464H577V244ZM587 244H597V484H587V244ZM597 244H607V464H597V244ZM607 244H617V444H607V244ZM617 244H627V424H617V244ZM627 234H637V404H627V234ZM667 234H677V344H667V234ZM657 234H667V334H657V234ZM637 224H647V314H637V224ZM647 234H657V324H647V234ZM637 324H647V364H637V324Z" fill="#A9C472"/>
      <path d="M447 224H457V374H447V224ZM537 234H547V374H537V234ZM517 244H527V344H517V244ZM467 244H477V344H467V244ZM457 354H537V374H457V354ZM457 224H487V234H457V224ZM477 244H517V254H477V244ZM477 334H517V344H477V334ZM507 274H517V314H507V274ZM497 294H507V324H497V294ZM487 264H497V294H487V264ZM497 254H507V274H497V254ZM477 284H487V314H477V284ZM487 314H497V334H487V314ZM507 324H517V334H507V324ZM477 254H487V264H477V254ZM527 224H547V234H527V224ZM217 264H287V274H217V264ZM147 274H287V284H147V274ZM147 284H287V294H147V284ZM147 294H287V304H147V294ZM147 304H287V314H147V304ZM207 314H287V324H207V314ZM207 324H287V334H207V324ZM147 314H197V324H147V314ZM147 324H177V334H147V324ZM147 334H167V344H147V334ZM147 344H157V364H147V344ZM207 334H217V394H207V334ZM217 334H227V364H217V334ZM277 334H287V384H277V334ZM267 334H277V384H267V334ZM257 334H267V374H257V334ZM247 334H257V354H247V334ZM237 334H247V344H237V334Z" fill="#A8A590"/>
      <path d="M487 554H497V574H487V554ZM547 574H637V584H547V574ZM497 544H677V554H497V544ZM547 554H677V564H547V554ZM587 534H677V544H587V534ZM637 564H677V574H637V564ZM487 534H527V544H487V534ZM507 524H527V534H507V524ZM607 524H677V534H607V524ZM617 514H677V524H617V514ZM497 564H547V584H497V564ZM627 584H677V604H627V584ZM537 584H627V594H537V584ZM537 604H547V654H537V604Z" fill="#DD9248"/>
      <path d="M547 474H577V484H547V474ZM537 494H577V534H537V494ZM587 494H607V524H587V494Z" fill="#E6E0D4"/>
      <path d="M597 514H607V524H597V514Z" fill="#302F2D"/>
    </g>
    <path d="M677 791H37V985H677V791Z" fill="black" fill-opacity="0.1"/>
    <path d="M59.2273 801.545V819H57.1136V801.545H59.2273ZM68.8857 805.909V807.614H62.1016V805.909H68.8857ZM64.0788 802.773H66.0902V815.25C66.0902 815.818 66.1726 816.244 66.3374 816.528C66.5078 816.807 66.7237 816.994 66.9851 817.091C67.2521 817.182 67.5334 817.227 67.8288 817.227C68.0504 817.227 68.2322 817.216 68.3743 817.193C68.5163 817.165 68.63 817.142 68.7152 817.125L69.1243 818.932C68.9879 818.983 68.7976 819.034 68.5533 819.085C68.3089 819.142 67.9993 819.17 67.6243 819.17C67.0561 819.17 66.4993 819.048 65.9538 818.804C65.4141 818.56 64.9652 818.188 64.6072 817.688C64.255 817.188 64.0788 816.557 64.0788 815.795V802.773ZM73.6499 801.545V807.545H71.7749V801.545H73.6499ZM86.5043 808.841L84.6974 809.352C84.5838 809.051 84.4162 808.759 84.1946 808.474C83.9787 808.185 83.6832 807.946 83.3082 807.759C82.9332 807.571 82.4531 807.477 81.8679 807.477C81.0668 807.477 80.3991 807.662 79.8651 808.031C79.3366 808.395 79.0724 808.858 79.0724 809.42C79.0724 809.92 79.2543 810.315 79.6179 810.605C79.9815 810.895 80.5497 811.136 81.3224 811.33L83.2656 811.807C84.4361 812.091 85.3082 812.526 85.8821 813.111C86.456 813.69 86.7429 814.437 86.7429 815.352C86.7429 816.102 86.527 816.773 86.0952 817.364C85.669 817.955 85.0724 818.42 84.3054 818.761C83.5384 819.102 82.6463 819.273 81.6293 819.273C80.294 819.273 79.1889 818.983 78.3139 818.403C77.4389 817.824 76.8849 816.977 76.652 815.864L78.5611 815.386C78.7429 816.091 79.0866 816.619 79.5923 816.972C80.1037 817.324 80.7713 817.5 81.5952 817.5C82.5327 817.5 83.277 817.301 83.8281 816.903C84.3849 816.5 84.6634 816.017 84.6634 815.455C84.6634 815 84.5043 814.619 84.1861 814.312C83.8679 814 83.3793 813.767 82.7202 813.614L80.5384 813.102C79.3395 812.818 78.4588 812.378 77.8963 811.781C77.3395 811.179 77.0611 810.426 77.0611 809.523C77.0611 808.784 77.2685 808.131 77.6832 807.562C78.1037 806.994 78.6747 806.548 79.3963 806.224C80.1236 805.901 80.9474 805.739 81.8679 805.739C83.1634 805.739 84.1804 806.023 84.919 806.591C85.6634 807.159 86.1918 807.909 86.5043 808.841ZM100.373 819.307C99.5433 819.307 98.7905 819.151 98.1143 818.838C97.4382 818.52 96.9013 818.062 96.5036 817.466C96.1058 816.864 95.907 816.136 95.907 815.284C95.907 814.534 96.0547 813.926 96.3501 813.46C96.6456 812.989 97.0405 812.619 97.5348 812.352C98.0291 812.085 98.5746 811.886 99.1712 811.756C99.7734 811.619 100.379 811.511 100.987 811.432C101.782 811.33 102.427 811.253 102.921 811.202C103.421 811.145 103.785 811.051 104.012 810.92C104.245 810.79 104.362 810.562 104.362 810.239V810.17C104.362 809.33 104.131 808.676 103.671 808.21C103.217 807.744 102.526 807.511 101.6 807.511C100.64 807.511 99.8871 807.722 99.3416 808.142C98.7962 808.562 98.4126 809.011 98.1911 809.489L96.282 808.807C96.6229 808.011 97.0774 807.392 97.6456 806.949C98.2195 806.5 98.8445 806.187 99.5206 806.011C100.202 805.83 100.873 805.739 101.532 805.739C101.952 805.739 102.435 805.79 102.981 805.892C103.532 805.989 104.063 806.19 104.575 806.497C105.092 806.804 105.521 807.267 105.862 807.886C106.202 808.506 106.373 809.335 106.373 810.375V819H104.362V817.227H104.259C104.123 817.511 103.896 817.815 103.577 818.139C103.259 818.463 102.836 818.739 102.308 818.966C101.779 819.193 101.134 819.307 100.373 819.307ZM100.68 817.5C101.475 817.5 102.146 817.344 102.691 817.031C103.242 816.719 103.657 816.315 103.935 815.821C104.219 815.327 104.362 814.807 104.362 814.261V812.42C104.276 812.523 104.089 812.616 103.799 812.702C103.515 812.781 103.185 812.852 102.81 812.915C102.441 812.972 102.08 813.023 101.728 813.068C101.381 813.108 101.1 813.142 100.884 813.17C100.362 813.239 99.8729 813.349 99.4183 813.503C98.9695 813.651 98.6058 813.875 98.3274 814.176C98.0547 814.472 97.9183 814.875 97.9183 815.386C97.9183 816.085 98.1768 816.614 98.6939 816.972C99.2166 817.324 99.8786 817.5 100.68 817.5ZM116.794 823.909V805.909H118.737V807.989H118.976C119.124 807.761 119.328 807.472 119.589 807.119C119.857 806.761 120.237 806.443 120.732 806.165C121.232 805.881 121.908 805.739 122.76 805.739C123.862 805.739 124.834 806.014 125.675 806.565C126.516 807.116 127.172 807.898 127.643 808.909C128.115 809.92 128.351 811.114 128.351 812.489C128.351 813.875 128.115 815.077 127.643 816.094C127.172 817.105 126.518 817.889 125.683 818.446C124.848 818.997 123.885 819.273 122.794 819.273C121.953 819.273 121.28 819.134 120.774 818.855C120.268 818.571 119.879 818.25 119.607 817.892C119.334 817.528 119.124 817.227 118.976 816.989H118.805V823.909H116.794ZM118.771 812.455C118.771 813.443 118.916 814.315 119.206 815.071C119.496 815.821 119.919 816.409 120.476 816.835C121.033 817.256 121.714 817.466 122.521 817.466C123.362 817.466 124.064 817.244 124.626 816.801C125.195 816.352 125.621 815.75 125.905 814.994C126.195 814.233 126.339 813.386 126.339 812.455C126.339 811.534 126.197 810.705 125.913 809.966C125.635 809.222 125.212 808.634 124.643 808.202C124.081 807.764 123.374 807.545 122.521 807.545C121.703 807.545 121.016 807.753 120.459 808.168C119.902 808.577 119.482 809.151 119.197 809.889C118.913 810.622 118.771 811.477 118.771 812.455ZM133.43 801.545V819H131.419V801.545H133.43ZM140.967 819.307C140.137 819.307 139.384 819.151 138.708 818.838C138.032 818.52 137.495 818.062 137.097 817.466C136.7 816.864 136.501 816.136 136.501 815.284C136.501 814.534 136.648 813.926 136.944 813.46C137.239 812.989 137.634 812.619 138.129 812.352C138.623 812.085 139.168 811.886 139.765 811.756C140.367 811.619 140.972 811.511 141.58 811.432C142.376 811.33 143.021 811.253 143.515 811.202C144.015 811.145 144.379 811.051 144.606 810.92C144.839 810.79 144.955 810.562 144.955 810.239V810.17C144.955 809.33 144.725 808.676 144.265 808.21C143.81 807.744 143.12 807.511 142.194 807.511C141.234 807.511 140.481 807.722 139.935 808.142C139.39 808.562 139.006 809.011 138.785 809.489L136.876 808.807C137.217 808.011 137.671 807.392 138.239 806.949C138.813 806.5 139.438 806.187 140.114 806.011C140.796 805.83 141.467 805.739 142.126 805.739C142.546 805.739 143.029 805.79 143.575 805.892C144.126 805.989 144.657 806.19 145.168 806.497C145.685 806.804 146.114 807.267 146.455 807.886C146.796 808.506 146.967 809.335 146.967 810.375V819H144.955V817.227H144.853C144.717 817.511 144.489 817.815 144.171 818.139C143.853 818.463 143.43 818.739 142.901 818.966C142.373 819.193 141.728 819.307 140.967 819.307ZM141.273 817.5C142.069 817.5 142.739 817.344 143.285 817.031C143.836 816.719 144.251 816.315 144.529 815.821C144.813 815.327 144.955 814.807 144.955 814.261V812.42C144.87 812.523 144.683 812.616 144.393 812.702C144.109 812.781 143.779 812.852 143.404 812.915C143.035 812.972 142.674 813.023 142.322 813.068C141.975 813.108 141.694 813.142 141.478 813.17C140.955 813.239 140.467 813.349 140.012 813.503C139.563 813.651 139.2 813.875 138.921 814.176C138.648 814.472 138.512 814.875 138.512 815.386C138.512 816.085 138.771 816.614 139.288 816.972C139.81 817.324 140.472 817.5 141.273 817.5ZM155.956 819.273C154.729 819.273 153.672 818.983 152.786 818.403C151.899 817.824 151.217 817.026 150.74 816.009C150.263 814.991 150.024 813.83 150.024 812.523C150.024 811.193 150.268 810.02 150.757 809.003C151.251 807.98 151.939 807.182 152.82 806.608C153.706 806.028 154.74 805.739 155.922 805.739C156.842 805.739 157.672 805.909 158.411 806.25C159.149 806.591 159.754 807.068 160.226 807.682C160.697 808.295 160.99 809.011 161.104 809.83H159.092C158.939 809.233 158.598 808.705 158.07 808.244C157.547 807.778 156.842 807.545 155.956 807.545C155.172 807.545 154.484 807.75 153.893 808.159C153.308 808.562 152.851 809.134 152.521 809.872C152.197 810.605 152.036 811.466 152.036 812.455C152.036 813.466 152.195 814.347 152.513 815.097C152.837 815.847 153.291 816.429 153.876 816.844C154.467 817.259 155.161 817.466 155.956 817.466C156.479 817.466 156.953 817.375 157.379 817.193C157.805 817.011 158.166 816.75 158.462 816.409C158.757 816.068 158.967 815.659 159.092 815.182H161.104C160.99 815.955 160.709 816.651 160.26 817.27C159.817 817.884 159.229 818.372 158.496 818.736C157.768 819.094 156.922 819.273 155.956 819.273ZM169.533 819.273C168.271 819.273 167.183 818.994 166.268 818.438C165.359 817.875 164.658 817.091 164.163 816.085C163.675 815.074 163.43 813.898 163.43 812.557C163.43 811.216 163.675 810.034 164.163 809.011C164.658 807.983 165.345 807.182 166.226 806.608C167.112 806.028 168.146 805.739 169.328 805.739C170.01 805.739 170.683 805.852 171.348 806.08C172.013 806.307 172.618 806.676 173.163 807.188C173.709 807.693 174.143 808.364 174.467 809.199C174.791 810.034 174.953 811.062 174.953 812.284V813.136H164.862V811.398H172.908C172.908 810.659 172.76 810 172.464 809.42C172.175 808.841 171.76 808.384 171.22 808.048C170.686 807.713 170.055 807.545 169.328 807.545C168.527 807.545 167.834 807.744 167.249 808.142C166.669 808.534 166.223 809.045 165.911 809.676C165.598 810.307 165.442 810.983 165.442 811.705V812.864C165.442 813.852 165.612 814.69 165.953 815.378C166.3 816.06 166.78 816.58 167.393 816.938C168.007 817.29 168.72 817.466 169.533 817.466C170.061 817.466 170.538 817.392 170.964 817.244C171.396 817.091 171.768 816.864 172.081 816.562C172.393 816.256 172.635 815.875 172.805 815.42L174.749 815.966C174.544 816.625 174.2 817.205 173.717 817.705C173.234 818.199 172.638 818.585 171.928 818.864C171.217 819.136 170.419 819.273 169.533 819.273ZM190.081 819.273C188.899 819.273 187.862 818.991 186.97 818.429C186.084 817.866 185.391 817.08 184.891 816.068C184.396 815.057 184.149 813.875 184.149 812.523C184.149 811.159 184.396 809.969 184.891 808.952C185.391 807.935 186.084 807.145 186.97 806.582C187.862 806.02 188.899 805.739 190.081 805.739C191.263 805.739 192.297 806.02 193.183 806.582C194.075 807.145 194.768 807.935 195.263 808.952C195.763 809.969 196.013 811.159 196.013 812.523C196.013 813.875 195.763 815.057 195.263 816.068C194.768 817.08 194.075 817.866 193.183 818.429C192.297 818.991 191.263 819.273 190.081 819.273ZM190.081 817.466C190.979 817.466 191.717 817.236 192.297 816.776C192.876 816.315 193.305 815.71 193.584 814.96C193.862 814.21 194.001 813.398 194.001 812.523C194.001 811.648 193.862 810.832 193.584 810.077C193.305 809.321 192.876 808.71 192.297 808.244C191.717 807.778 190.979 807.545 190.081 807.545C189.183 807.545 188.445 807.778 187.865 808.244C187.286 808.71 186.857 809.321 186.578 810.077C186.3 810.832 186.161 811.648 186.161 812.523C186.161 813.398 186.3 814.21 186.578 814.96C186.857 815.71 187.286 816.315 187.865 816.776C188.445 817.236 189.183 817.466 190.081 817.466ZM204.913 805.909V807.614H197.856V805.909H204.913ZM199.969 819V804.102C199.969 803.352 200.146 802.727 200.498 802.227C200.85 801.727 201.308 801.352 201.87 801.102C202.433 800.852 203.026 800.727 203.651 800.727C204.146 800.727 204.549 800.767 204.862 800.847C205.174 800.926 205.407 801 205.56 801.068L204.981 802.807C204.879 802.773 204.737 802.73 204.555 802.679C204.379 802.628 204.146 802.602 203.856 802.602C203.191 802.602 202.711 802.77 202.415 803.105C202.126 803.44 201.981 803.932 201.981 804.58V819H199.969ZM214.482 823.909V805.909H216.425V807.989H216.663C216.811 807.761 217.016 807.472 217.277 807.119C217.544 806.761 217.925 806.443 218.419 806.165C218.919 805.881 219.595 805.739 220.447 805.739C221.55 805.739 222.521 806.014 223.362 806.565C224.203 807.116 224.859 807.898 225.331 808.909C225.803 809.92 226.038 811.114 226.038 812.489C226.038 813.875 225.803 815.077 225.331 816.094C224.859 817.105 224.206 817.889 223.371 818.446C222.536 818.997 221.572 819.273 220.482 819.273C219.641 819.273 218.967 819.134 218.462 818.855C217.956 818.571 217.567 818.25 217.294 817.892C217.021 817.528 216.811 817.227 216.663 816.989H216.493V823.909H214.482ZM216.459 812.455C216.459 813.443 216.604 814.315 216.893 815.071C217.183 815.821 217.607 816.409 218.163 816.835C218.72 817.256 219.402 817.466 220.209 817.466C221.05 817.466 221.751 817.244 222.314 816.801C222.882 816.352 223.308 815.75 223.592 814.994C223.882 814.233 224.027 813.386 224.027 812.455C224.027 811.534 223.885 810.705 223.601 809.966C223.322 809.222 222.899 808.634 222.331 808.202C221.768 807.764 221.061 807.545 220.209 807.545C219.391 807.545 218.703 807.753 218.146 808.168C217.589 808.577 217.169 809.151 216.885 809.889C216.601 810.622 216.459 811.477 216.459 812.455ZM234.595 819.273C233.334 819.273 232.246 818.994 231.331 818.438C230.422 817.875 229.72 817.091 229.226 816.085C228.737 815.074 228.493 813.898 228.493 812.557C228.493 811.216 228.737 810.034 229.226 809.011C229.72 807.983 230.408 807.182 231.288 806.608C232.175 806.028 233.209 805.739 234.391 805.739C235.072 805.739 235.746 805.852 236.411 806.08C237.075 806.307 237.68 806.676 238.226 807.188C238.771 807.693 239.206 808.364 239.53 809.199C239.854 810.034 240.016 811.062 240.016 812.284V813.136H229.925V811.398H237.97C237.97 810.659 237.822 810 237.527 809.42C237.237 808.841 236.822 808.384 236.283 808.048C235.749 807.713 235.118 807.545 234.391 807.545C233.589 807.545 232.896 807.744 232.311 808.142C231.732 808.534 231.286 809.045 230.973 809.676C230.661 810.307 230.504 810.983 230.504 811.705V812.864C230.504 813.852 230.675 814.69 231.016 815.378C231.362 816.06 231.842 816.58 232.456 816.938C233.07 817.29 233.783 817.466 234.595 817.466C235.124 817.466 235.601 817.392 236.027 817.244C236.459 817.091 236.831 816.864 237.143 816.562C237.456 816.256 237.697 815.875 237.868 815.42L239.811 815.966C239.607 816.625 239.263 817.205 238.78 817.705C238.297 818.199 237.7 818.585 236.99 818.864C236.28 819.136 235.482 819.273 234.595 819.273ZM248.393 819.273C247.212 819.273 246.175 818.991 245.283 818.429C244.396 817.866 243.703 817.08 243.203 816.068C242.709 815.057 242.462 813.875 242.462 812.523C242.462 811.159 242.709 809.969 243.203 808.952C243.703 807.935 244.396 807.145 245.283 806.582C246.175 806.02 247.212 805.739 248.393 805.739C249.575 805.739 250.609 806.02 251.496 806.582C252.388 807.145 253.081 807.935 253.575 808.952C254.075 809.969 254.325 811.159 254.325 812.523C254.325 813.875 254.075 815.057 253.575 816.068C253.081 817.08 252.388 817.866 251.496 818.429C250.609 818.991 249.575 819.273 248.393 819.273ZM248.393 817.466C249.291 817.466 250.03 817.236 250.609 816.776C251.189 816.315 251.618 815.71 251.896 814.96C252.175 814.21 252.314 813.398 252.314 812.523C252.314 811.648 252.175 810.832 251.896 810.077C251.618 809.321 251.189 808.71 250.609 808.244C250.03 807.778 249.291 807.545 248.393 807.545C247.496 807.545 246.757 807.778 246.178 808.244C245.598 808.71 245.169 809.321 244.891 810.077C244.612 810.832 244.473 811.648 244.473 812.523C244.473 813.398 244.612 814.21 244.891 814.96C245.169 815.71 245.598 816.315 246.178 816.776C246.757 817.236 247.496 817.466 248.393 817.466ZM257.396 823.909V805.909H259.339V807.989H259.577C259.725 807.761 259.93 807.472 260.191 807.119C260.458 806.761 260.839 806.443 261.333 806.165C261.833 805.881 262.509 805.739 263.362 805.739C264.464 805.739 265.435 806.014 266.276 806.565C267.117 807.116 267.773 807.898 268.245 808.909C268.717 809.92 268.952 811.114 268.952 812.489C268.952 813.875 268.717 815.077 268.245 816.094C267.773 817.105 267.12 817.889 266.285 818.446C265.45 818.997 264.487 819.273 263.396 819.273C262.555 819.273 261.881 819.134 261.376 818.855C260.87 818.571 260.481 818.25 260.208 817.892C259.935 817.528 259.725 817.227 259.577 816.989H259.407V823.909H257.396ZM259.373 812.455C259.373 813.443 259.518 814.315 259.808 815.071C260.097 815.821 260.521 816.409 261.077 816.835C261.634 817.256 262.316 817.466 263.123 817.466C263.964 817.466 264.665 817.244 265.228 816.801C265.796 816.352 266.222 815.75 266.506 814.994C266.796 814.233 266.941 813.386 266.941 812.455C266.941 811.534 266.799 810.705 266.515 809.966C266.237 809.222 265.813 808.634 265.245 808.202C264.683 807.764 263.975 807.545 263.123 807.545C262.305 807.545 261.617 807.753 261.06 808.168C260.504 808.577 260.083 809.151 259.799 809.889C259.515 810.622 259.373 811.477 259.373 812.455ZM274.032 801.545V819H272.021V801.545H274.032ZM283.205 819.273C281.943 819.273 280.855 818.994 279.94 818.438C279.031 817.875 278.33 817.091 277.835 816.085C277.347 815.074 277.102 813.898 277.102 812.557C277.102 811.216 277.347 810.034 277.835 809.011C278.33 807.983 279.017 807.182 279.898 806.608C280.784 806.028 281.818 805.739 283 805.739C283.682 805.739 284.355 805.852 285.02 806.08C285.685 806.307 286.29 806.676 286.835 807.188C287.381 807.693 287.815 808.364 288.139 809.199C288.463 810.034 288.625 811.062 288.625 812.284V813.136H278.534V811.398H286.58C286.58 810.659 286.432 810 286.136 809.42C285.847 808.841 285.432 808.384 284.892 808.048C284.358 807.713 283.727 807.545 283 807.545C282.199 807.545 281.506 807.744 280.92 808.142C280.341 808.534 279.895 809.045 279.582 809.676C279.27 810.307 279.114 810.983 279.114 811.705V812.864C279.114 813.852 279.284 814.69 279.625 815.378C279.972 816.06 280.452 816.58 281.065 816.938C281.679 817.29 282.392 817.466 283.205 817.466C283.733 817.466 284.21 817.392 284.636 817.244C285.068 817.091 285.44 816.864 285.753 816.562C286.065 816.256 286.307 815.875 286.477 815.42L288.42 815.966C288.216 816.625 287.872 817.205 287.389 817.705C286.906 818.199 286.31 818.585 285.599 818.864C284.889 819.136 284.091 819.273 283.205 819.273ZM294.685 816.614L294.548 817.534C294.452 818.182 294.304 818.875 294.105 819.614C293.912 820.352 293.71 821.048 293.5 821.702C293.29 822.355 293.116 822.875 292.98 823.261H291.446C291.52 822.898 291.616 822.418 291.736 821.821C291.855 821.224 291.974 820.557 292.094 819.818C292.219 819.085 292.321 818.335 292.401 817.568L292.503 816.614H294.685ZM314.434 808.841L312.627 809.352C312.513 809.051 312.346 808.759 312.124 808.474C311.908 808.185 311.613 807.946 311.238 807.759C310.863 807.571 310.383 807.477 309.798 807.477C308.996 807.477 308.329 807.662 307.795 808.031C307.266 808.395 307.002 808.858 307.002 809.42C307.002 809.92 307.184 810.315 307.548 810.605C307.911 810.895 308.479 811.136 309.252 811.33L311.195 811.807C312.366 812.091 313.238 812.526 313.812 813.111C314.386 813.69 314.673 814.437 314.673 815.352C314.673 816.102 314.457 816.773 314.025 817.364C313.599 817.955 313.002 818.42 312.235 818.761C311.468 819.102 310.576 819.273 309.559 819.273C308.224 819.273 307.119 818.983 306.244 818.403C305.369 817.824 304.815 816.977 304.582 815.864L306.491 815.386C306.673 816.091 307.016 816.619 307.522 816.972C308.033 817.324 308.701 817.5 309.525 817.5C310.462 817.5 311.207 817.301 311.758 816.903C312.315 816.5 312.593 816.017 312.593 815.455C312.593 815 312.434 814.619 312.116 814.312C311.798 814 311.309 813.767 310.65 813.614L308.468 813.102C307.269 812.818 306.388 812.378 305.826 811.781C305.269 811.179 304.991 810.426 304.991 809.523C304.991 808.784 305.198 808.131 305.613 807.562C306.033 806.994 306.604 806.548 307.326 806.224C308.053 805.901 308.877 805.739 309.798 805.739C311.093 805.739 312.11 806.023 312.849 806.591C313.593 807.159 314.121 807.909 314.434 808.841ZM323.018 819.273C321.837 819.273 320.8 818.991 319.908 818.429C319.021 817.866 318.328 817.08 317.828 816.068C317.334 815.057 317.087 813.875 317.087 812.523C317.087 811.159 317.334 809.969 317.828 808.952C318.328 807.935 319.021 807.145 319.908 806.582C320.8 806.02 321.837 805.739 323.018 805.739C324.2 805.739 325.234 806.02 326.121 806.582C327.013 807.145 327.706 807.935 328.2 808.952C328.7 809.969 328.95 811.159 328.95 812.523C328.95 813.875 328.7 815.057 328.2 816.068C327.706 817.08 327.013 817.866 326.121 818.429C325.234 818.991 324.2 819.273 323.018 819.273ZM323.018 817.466C323.916 817.466 324.655 817.236 325.234 816.776C325.814 816.315 326.243 815.71 326.521 814.96C326.8 814.21 326.939 813.398 326.939 812.523C326.939 811.648 326.8 810.832 326.521 810.077C326.243 809.321 325.814 808.71 325.234 808.244C324.655 807.778 323.916 807.545 323.018 807.545C322.121 807.545 321.382 807.778 320.803 808.244C320.223 808.71 319.794 809.321 319.516 810.077C319.237 810.832 319.098 811.648 319.098 812.523C319.098 813.398 319.237 814.21 319.516 814.96C319.794 815.71 320.223 816.315 320.803 816.776C321.382 817.236 322.121 817.466 323.018 817.466ZM332.021 819V805.909H333.964V807.955H334.134C334.407 807.256 334.847 806.713 335.455 806.327C336.063 805.935 336.793 805.739 337.646 805.739C338.509 805.739 339.228 805.935 339.802 806.327C340.381 806.713 340.833 807.256 341.157 807.955H341.293C341.629 807.278 342.131 806.741 342.802 806.344C343.472 805.94 344.276 805.739 345.214 805.739C346.384 805.739 347.342 806.105 348.086 806.838C348.83 807.565 349.202 808.699 349.202 810.239V819H347.191V810.239C347.191 809.273 346.927 808.582 346.398 808.168C345.87 807.753 345.248 807.545 344.532 807.545C343.612 807.545 342.898 807.824 342.393 808.381C341.887 808.932 341.634 809.631 341.634 810.477V819H339.589V810.034C339.589 809.29 339.347 808.69 338.864 808.236C338.381 807.776 337.759 807.545 336.998 807.545C336.475 807.545 335.987 807.685 335.532 807.963C335.083 808.241 334.719 808.628 334.441 809.122C334.168 809.611 334.032 810.176 334.032 810.818V819H332.021ZM358.369 819.273C357.107 819.273 356.019 818.994 355.104 818.438C354.195 817.875 353.494 817.091 352.999 816.085C352.511 815.074 352.266 813.898 352.266 812.557C352.266 811.216 352.511 810.034 352.999 809.011C353.494 807.983 354.181 807.182 355.062 806.608C355.948 806.028 356.982 805.739 358.164 805.739C358.846 805.739 359.519 805.852 360.184 806.08C360.849 806.307 361.454 806.676 361.999 807.188C362.545 807.693 362.979 808.364 363.303 809.199C363.627 810.034 363.789 811.062 363.789 812.284V813.136H353.698V811.398H361.744C361.744 810.659 361.596 810 361.3 809.42C361.011 808.841 360.596 808.384 360.056 808.048C359.522 807.713 358.891 807.545 358.164 807.545C357.363 807.545 356.67 807.744 356.085 808.142C355.505 808.534 355.059 809.045 354.746 809.676C354.434 810.307 354.278 810.983 354.278 811.705V812.864C354.278 813.852 354.448 814.69 354.789 815.378C355.136 816.06 355.616 816.58 356.229 816.938C356.843 817.29 357.556 817.466 358.369 817.466C358.897 817.466 359.374 817.392 359.8 817.244C360.232 817.091 360.604 816.864 360.917 816.562C361.229 816.256 361.471 815.875 361.641 815.42L363.585 815.966C363.38 816.625 363.036 817.205 362.553 817.705C362.07 818.199 361.474 818.585 360.763 818.864C360.053 819.136 359.255 819.273 358.369 819.273ZM369.815 819L365.826 805.909H367.94L370.769 815.932H370.906L373.701 805.909H375.849L378.61 815.898H378.746L381.576 805.909H383.69L379.701 819H377.724L374.86 808.943H374.656L371.792 819H369.815ZM388.36 811.125V819H386.349V801.545H388.36V807.955H388.531C388.837 807.278 389.298 806.741 389.911 806.344C390.531 805.94 391.354 805.739 392.383 805.739C393.275 805.739 394.056 805.918 394.727 806.276C395.397 806.628 395.917 807.17 396.286 807.903C396.661 808.631 396.849 809.557 396.849 810.682V819H394.837V810.818C394.837 809.778 394.567 808.974 394.028 808.406C393.494 807.832 392.752 807.545 391.803 807.545C391.144 807.545 390.553 807.685 390.031 807.963C389.513 808.241 389.104 808.648 388.803 809.182C388.508 809.716 388.36 810.364 388.36 811.125ZM406.017 819.273C404.756 819.273 403.668 818.994 402.753 818.438C401.844 817.875 401.142 817.091 400.648 816.085C400.159 815.074 399.915 813.898 399.915 812.557C399.915 811.216 400.159 810.034 400.648 809.011C401.142 807.983 401.83 807.182 402.71 806.608C403.597 806.028 404.631 805.739 405.812 805.739C406.494 805.739 407.168 805.852 407.832 806.08C408.497 806.307 409.102 806.676 409.648 807.188C410.193 807.693 410.628 808.364 410.952 809.199C411.276 810.034 411.438 811.062 411.438 812.284V813.136H401.347V811.398H409.392C409.392 810.659 409.244 810 408.949 809.42C408.659 808.841 408.244 808.384 407.705 808.048C407.17 807.713 406.54 807.545 405.812 807.545C405.011 807.545 404.318 807.744 403.733 808.142C403.153 808.534 402.707 809.045 402.395 809.676C402.082 810.307 401.926 810.983 401.926 811.705V812.864C401.926 813.852 402.097 814.69 402.438 815.378C402.784 816.06 403.264 816.58 403.878 816.938C404.491 817.29 405.205 817.466 406.017 817.466C406.545 817.466 407.023 817.392 407.449 817.244C407.881 817.091 408.253 816.864 408.565 816.562C408.878 816.256 409.119 815.875 409.29 815.42L411.233 815.966C411.028 816.625 410.685 817.205 410.202 817.705C409.719 818.199 409.122 818.585 408.412 818.864C407.702 819.136 406.903 819.273 406.017 819.273ZM414.497 819V805.909H416.44V807.886H416.577C416.815 807.239 417.247 806.713 417.872 806.31C418.497 805.906 419.202 805.705 419.986 805.705C420.134 805.705 420.318 805.707 420.54 805.713C420.761 805.719 420.929 805.727 421.043 805.739V807.784C420.974 807.767 420.818 807.741 420.574 807.707C420.335 807.668 420.082 807.648 419.815 807.648C419.179 807.648 418.611 807.781 418.111 808.048C417.616 808.31 417.224 808.673 416.935 809.139C416.651 809.599 416.509 810.125 416.509 810.716V819H414.497ZM428.517 819.273C427.256 819.273 426.168 818.994 425.253 818.438C424.344 817.875 423.642 817.091 423.148 816.085C422.659 815.074 422.415 813.898 422.415 812.557C422.415 811.216 422.659 810.034 423.148 809.011C423.642 807.983 424.33 807.182 425.21 806.608C426.097 806.028 427.131 805.739 428.312 805.739C428.994 805.739 429.668 805.852 430.332 806.08C430.997 806.307 431.602 806.676 432.148 807.188C432.693 807.693 433.128 808.364 433.452 809.199C433.776 810.034 433.938 811.062 433.938 812.284V813.136H423.847V811.398H431.892C431.892 810.659 431.744 810 431.449 809.42C431.159 808.841 430.744 808.384 430.205 808.048C429.67 807.713 429.04 807.545 428.312 807.545C427.511 807.545 426.818 807.744 426.233 808.142C425.653 808.534 425.207 809.045 424.895 809.676C424.582 810.307 424.426 810.983 424.426 811.705V812.864C424.426 813.852 424.597 814.69 424.938 815.378C425.284 816.06 425.764 816.58 426.378 816.938C426.991 817.29 427.705 817.466 428.517 817.466C429.045 817.466 429.523 817.392 429.949 817.244C430.381 817.091 430.753 816.864 431.065 816.562C431.378 816.256 431.619 815.875 431.79 815.42L433.733 815.966C433.528 816.625 433.185 817.205 432.702 817.705C432.219 818.199 431.622 818.585 430.912 818.864C430.202 819.136 429.403 819.273 428.517 819.273ZM439.997 816.614L439.861 817.534C439.764 818.182 439.616 818.875 439.418 819.614C439.224 820.352 439.023 821.048 438.812 821.702C438.602 822.355 438.429 822.875 438.293 823.261H436.759C436.832 822.898 436.929 822.418 437.048 821.821C437.168 821.224 437.287 820.557 437.406 819.818C437.531 819.085 437.634 818.335 437.713 817.568L437.815 816.614H439.997ZM455.792 819.273C454.565 819.273 453.508 818.983 452.621 818.403C451.735 817.824 451.053 817.026 450.576 816.009C450.099 814.991 449.86 813.83 449.86 812.523C449.86 811.193 450.104 810.02 450.593 809.003C451.087 807.98 451.775 807.182 452.656 806.608C453.542 806.028 454.576 805.739 455.758 805.739C456.678 805.739 457.508 805.909 458.246 806.25C458.985 806.591 459.59 807.068 460.062 807.682C460.533 808.295 460.826 809.011 460.94 809.83H458.928C458.775 809.233 458.434 808.705 457.906 808.244C457.383 807.778 456.678 807.545 455.792 807.545C455.008 807.545 454.32 807.75 453.729 808.159C453.144 808.562 452.687 809.134 452.357 809.872C452.033 810.605 451.871 811.466 451.871 812.455C451.871 813.466 452.031 814.347 452.349 815.097C452.673 815.847 453.127 816.429 453.712 816.844C454.303 817.259 454.996 817.466 455.792 817.466C456.315 817.466 456.789 817.375 457.215 817.193C457.641 817.011 458.002 816.75 458.298 816.409C458.593 816.068 458.803 815.659 458.928 815.182H460.94C460.826 815.955 460.545 816.651 460.096 817.27C459.653 817.884 459.065 818.372 458.332 818.736C457.604 819.094 456.758 819.273 455.792 819.273ZM469.198 819.273C468.016 819.273 466.979 818.991 466.087 818.429C465.201 817.866 464.508 817.08 464.008 816.068C463.513 815.057 463.266 813.875 463.266 812.523C463.266 811.159 463.513 809.969 464.008 808.952C464.508 807.935 465.201 807.145 466.087 806.582C466.979 806.02 468.016 805.739 469.198 805.739C470.38 805.739 471.414 806.02 472.3 806.582C473.192 807.145 473.886 807.935 474.38 808.952C474.88 809.969 475.13 811.159 475.13 812.523C475.13 813.875 474.88 815.057 474.38 816.068C473.886 817.08 473.192 817.866 472.3 818.429C471.414 818.991 470.38 819.273 469.198 819.273ZM469.198 817.466C470.096 817.466 470.835 817.236 471.414 816.776C471.994 816.315 472.423 815.71 472.701 814.96C472.979 814.21 473.119 813.398 473.119 812.523C473.119 811.648 472.979 810.832 472.701 810.077C472.423 809.321 471.994 808.71 471.414 808.244C470.835 807.778 470.096 807.545 469.198 807.545C468.3 807.545 467.562 807.778 466.982 808.244C466.403 808.71 465.974 809.321 465.695 810.077C465.417 810.832 465.278 811.648 465.278 812.523C465.278 813.398 465.417 814.21 465.695 814.96C465.974 815.71 466.403 816.315 466.982 816.776C467.562 817.236 468.3 817.466 469.198 817.466ZM480.212 811.125V819H478.2V805.909H480.143V807.955H480.314C480.621 807.29 481.087 806.756 481.712 806.352C482.337 805.943 483.143 805.739 484.132 805.739C485.018 805.739 485.794 805.92 486.459 806.284C487.124 806.642 487.641 807.188 488.01 807.92C488.379 808.648 488.564 809.568 488.564 810.682V819H486.553V810.818C486.553 809.79 486.286 808.989 485.751 808.415C485.217 807.835 484.484 807.545 483.553 807.545C482.911 807.545 482.337 807.685 481.831 807.963C481.331 808.241 480.936 808.648 480.646 809.182C480.357 809.716 480.212 810.364 480.212 811.125ZM501.512 808.841L499.705 809.352C499.592 809.051 499.424 808.759 499.202 808.474C498.987 808.185 498.691 807.946 498.316 807.759C497.941 807.571 497.461 807.477 496.876 807.477C496.075 807.477 495.407 807.662 494.873 808.031C494.344 808.395 494.08 808.858 494.08 809.42C494.08 809.92 494.262 810.315 494.626 810.605C494.989 810.895 495.558 811.136 496.33 811.33L498.273 811.807C499.444 812.091 500.316 812.526 500.89 813.111C501.464 813.69 501.751 814.437 501.751 815.352C501.751 816.102 501.535 816.773 501.103 817.364C500.677 817.955 500.08 818.42 499.313 818.761C498.546 819.102 497.654 819.273 496.637 819.273C495.302 819.273 494.197 818.983 493.322 818.403C492.447 817.824 491.893 816.977 491.66 815.864L493.569 815.386C493.751 816.091 494.094 816.619 494.6 816.972C495.112 817.324 495.779 817.5 496.603 817.5C497.54 817.5 498.285 817.301 498.836 816.903C499.393 816.5 499.671 816.017 499.671 815.455C499.671 815 499.512 814.619 499.194 814.312C498.876 814 498.387 813.767 497.728 813.614L495.546 813.102C494.347 812.818 493.467 812.378 492.904 811.781C492.347 811.179 492.069 810.426 492.069 809.523C492.069 808.784 492.276 808.131 492.691 807.562C493.112 806.994 493.683 806.548 494.404 806.224C495.131 805.901 495.955 805.739 496.876 805.739C498.171 805.739 499.188 806.023 499.927 806.591C500.671 807.159 501.2 807.909 501.512 808.841ZM510.472 805.909V807.614H503.688V805.909H510.472ZM505.665 802.773H507.676V815.25C507.676 815.818 507.759 816.244 507.923 816.528C508.094 816.807 508.31 816.994 508.571 817.091C508.838 817.182 509.119 817.227 509.415 817.227C509.636 817.227 509.818 817.216 509.96 817.193C510.102 817.165 510.216 817.142 510.301 817.125L510.71 818.932C510.574 818.983 510.384 819.034 510.139 819.085C509.895 819.142 509.585 819.17 509.21 819.17C508.642 819.17 508.085 819.048 507.54 818.804C507 818.56 506.551 818.188 506.193 817.688C505.841 817.188 505.665 816.557 505.665 815.795V802.773ZM517.349 819.307C516.52 819.307 515.767 819.151 515.091 818.838C514.415 818.52 513.878 818.062 513.48 817.466C513.082 816.864 512.884 816.136 512.884 815.284C512.884 814.534 513.031 813.926 513.327 813.46C513.622 812.989 514.017 812.619 514.511 812.352C515.006 812.085 515.551 811.886 516.148 811.756C516.75 811.619 517.355 811.511 517.963 811.432C518.759 811.33 519.403 811.253 519.898 811.202C520.398 811.145 520.761 811.051 520.989 810.92C521.222 810.79 521.338 810.562 521.338 810.239V810.17C521.338 809.33 521.108 808.676 520.648 808.21C520.193 807.744 519.503 807.511 518.577 807.511C517.616 807.511 516.864 807.722 516.318 808.142C515.773 808.562 515.389 809.011 515.168 809.489L513.259 808.807C513.599 808.011 514.054 807.392 514.622 806.949C515.196 806.5 515.821 806.187 516.497 806.011C517.179 805.83 517.849 805.739 518.509 805.739C518.929 805.739 519.412 805.79 519.957 805.892C520.509 805.989 521.04 806.19 521.551 806.497C522.068 806.804 522.497 807.267 522.838 807.886C523.179 808.506 523.349 809.335 523.349 810.375V819H521.338V817.227H521.236C521.099 817.511 520.872 817.815 520.554 818.139C520.236 818.463 519.813 818.739 519.284 818.966C518.756 819.193 518.111 819.307 517.349 819.307ZM517.656 817.5C518.452 817.5 519.122 817.344 519.668 817.031C520.219 816.719 520.634 816.315 520.912 815.821C521.196 815.327 521.338 814.807 521.338 814.261V812.42C521.253 812.523 521.065 812.616 520.776 812.702C520.491 812.781 520.162 812.852 519.787 812.915C519.418 812.972 519.057 813.023 518.705 813.068C518.358 813.108 518.077 813.142 517.861 813.17C517.338 813.239 516.849 813.349 516.395 813.503C515.946 813.651 515.582 813.875 515.304 814.176C515.031 814.472 514.895 814.875 514.895 815.386C514.895 816.085 515.153 816.614 515.67 816.972C516.193 817.324 516.855 817.5 517.656 817.5ZM529.032 811.125V819H527.021V805.909H528.964V807.955H529.134C529.441 807.29 529.907 806.756 530.532 806.352C531.157 805.943 531.964 805.739 532.952 805.739C533.839 805.739 534.614 805.92 535.279 806.284C535.944 806.642 536.461 807.188 536.83 807.92C537.2 808.648 537.384 809.568 537.384 810.682V819H535.373V810.818C535.373 809.79 535.106 808.989 534.572 808.415C534.038 807.835 533.305 807.545 532.373 807.545C531.731 807.545 531.157 807.685 530.651 807.963C530.151 808.241 529.756 808.648 529.467 809.182C529.177 809.716 529.032 810.364 529.032 811.125ZM546.753 805.909V807.614H539.969V805.909H546.753ZM541.946 802.773H543.957V815.25C543.957 815.818 544.04 816.244 544.205 816.528C544.375 816.807 544.591 816.994 544.852 817.091C545.119 817.182 545.401 817.227 545.696 817.227C545.918 817.227 546.099 817.216 546.241 817.193C546.384 817.165 546.497 817.142 546.582 817.125L546.991 818.932C546.855 818.983 546.665 819.034 546.42 819.085C546.176 819.142 545.866 819.17 545.491 819.17C544.923 819.17 544.366 819.048 543.821 818.804C543.281 818.56 542.832 818.188 542.474 817.688C542.122 817.188 541.946 816.557 541.946 815.795V802.773ZM552.071 801.545V819H550.06V801.545H552.071ZM557.05 823.909C556.71 823.909 556.406 823.881 556.138 823.824C555.871 823.773 555.687 823.722 555.585 823.67L556.096 821.898C556.585 822.023 557.016 822.068 557.391 822.034C557.766 822 558.099 821.832 558.388 821.531C558.684 821.236 558.954 820.756 559.198 820.091L559.573 819.068L554.732 805.909H556.914L560.528 816.341H560.664L564.278 805.909H566.46L560.903 820.909C560.653 821.585 560.343 822.145 559.974 822.588C559.604 823.037 559.175 823.369 558.687 823.585C558.204 823.801 557.658 823.909 557.05 823.909Z" fill="black"/>
    <path d="M57.1136 853V835.545H59.125V841.989H59.2955C59.4432 841.761 59.6477 841.472 59.9091 841.119C60.1761 840.761 60.5568 840.443 61.0511 840.165C61.5511 839.881 62.2273 839.739 63.0795 839.739C64.1818 839.739 65.1534 840.014 65.9943 840.565C66.8352 841.116 67.4915 841.898 67.9631 842.909C68.4347 843.92 68.6705 845.114 68.6705 846.489C68.6705 847.875 68.4347 849.077 67.9631 850.094C67.4915 851.105 66.8381 851.889 66.0028 852.446C65.1676 852.997 64.2045 853.273 63.1136 853.273C62.2727 853.273 61.5994 853.134 61.0938 852.855C60.5881 852.571 60.1989 852.25 59.9261 851.892C59.6534 851.528 59.4432 851.227 59.2955 850.989H59.0568V853H57.1136ZM59.0909 846.455C59.0909 847.443 59.2358 848.315 59.5256 849.071C59.8153 849.821 60.2386 850.409 60.7955 850.835C61.3523 851.256 62.0341 851.466 62.8409 851.466C63.6818 851.466 64.3835 851.244 64.946 850.801C65.5142 850.352 65.9403 849.75 66.2244 848.994C66.5142 848.233 66.6591 847.386 66.6591 846.455C66.6591 845.534 66.517 844.705 66.233 843.966C65.9545 843.222 65.5313 842.634 64.9631 842.202C64.4006 841.764 63.6932 841.545 62.8409 841.545C62.0227 841.545 61.3352 841.753 60.7784 842.168C60.2216 842.577 59.8011 843.151 59.517 843.889C59.233 844.622 59.0909 845.477 59.0909 846.455ZM79.9972 847.648V839.909H82.0085V853H79.9972V850.784H79.8608C79.554 851.449 79.0767 852.014 78.429 852.48C77.7813 852.94 76.9631 853.17 75.9744 853.17C75.1562 853.17 74.429 852.991 73.7926 852.634C73.1563 852.27 72.6563 851.724 72.2926 850.997C71.929 850.264 71.7472 849.341 71.7472 848.227V839.909H73.7585V848.091C73.7585 849.045 74.0256 849.807 74.5597 850.375C75.0994 850.943 75.7869 851.227 76.6222 851.227C77.1222 851.227 77.6307 851.099 78.1477 850.844C78.6705 850.588 79.108 850.196 79.4602 849.668C79.8182 849.139 79.9972 848.466 79.9972 847.648ZM85.6925 853V839.909H87.7038V853H85.6925ZM86.7152 837.727C86.3232 837.727 85.9851 837.594 85.701 837.327C85.4226 837.06 85.2834 836.739 85.2834 836.364C85.2834 835.989 85.4226 835.668 85.701 835.401C85.9851 835.134 86.3232 835 86.7152 835C87.1072 835 87.4425 835.134 87.7209 835.401C88.005 835.668 88.147 835.989 88.147 836.364C88.147 836.739 88.005 837.06 87.7209 837.327C87.4425 837.594 87.1072 837.727 86.7152 837.727ZM93.3991 835.545V853H91.3878V835.545H93.3991ZM102.026 853.273C100.935 853.273 99.9723 852.997 99.1371 852.446C98.3018 851.889 97.6484 851.105 97.1768 850.094C96.7053 849.077 96.4695 847.875 96.4695 846.489C96.4695 845.114 96.7053 843.92 97.1768 842.909C97.6484 841.898 98.3047 841.116 99.1456 840.565C99.9865 840.014 100.958 839.739 102.06 839.739C102.913 839.739 103.586 839.881 104.08 840.165C104.58 840.443 104.961 840.761 105.222 841.119C105.489 841.472 105.697 841.761 105.844 841.989H106.015V835.545H108.026V853H106.083V850.989H105.844C105.697 851.227 105.487 851.528 105.214 851.892C104.941 852.25 104.552 852.571 104.046 852.855C103.54 853.134 102.867 853.273 102.026 853.273ZM102.299 851.466C103.106 851.466 103.788 851.256 104.344 850.835C104.901 850.409 105.325 849.821 105.614 849.071C105.904 848.315 106.049 847.443 106.049 846.455C106.049 845.477 105.907 844.622 105.623 843.889C105.339 843.151 104.918 842.577 104.362 842.168C103.805 841.753 103.117 841.545 102.299 841.545C101.447 841.545 100.737 841.764 100.168 842.202C99.6058 842.634 99.1825 843.222 98.8984 843.966C98.62 844.705 98.4808 845.534 98.4808 846.455C98.4808 847.386 98.6229 848.233 98.907 848.994C99.1967 849.75 99.6229 850.352 100.185 850.801C100.754 851.244 101.458 851.466 102.299 851.466ZM111.989 853V839.909H114.001V853H111.989ZM113.012 837.727C112.62 837.727 112.282 837.594 111.998 837.327C111.719 837.06 111.58 836.739 111.58 836.364C111.58 835.989 111.719 835.668 111.998 835.401C112.282 835.134 112.62 835 113.012 835C113.404 835 113.739 835.134 114.018 835.401C114.302 835.668 114.444 835.989 114.444 836.364C114.444 836.739 114.302 837.06 114.018 837.327C113.739 837.594 113.404 837.727 113.012 837.727ZM119.696 845.125V853H117.685V839.909H119.628V841.955H119.798C120.105 841.29 120.571 840.756 121.196 840.352C121.821 839.943 122.628 839.739 123.616 839.739C124.503 839.739 125.278 839.92 125.943 840.284C126.608 840.642 127.125 841.188 127.494 841.92C127.864 842.648 128.048 843.568 128.048 844.682V853H126.037V844.818C126.037 843.79 125.77 842.989 125.236 842.415C124.702 841.835 123.969 841.545 123.037 841.545C122.395 841.545 121.821 841.685 121.315 841.963C120.815 842.241 120.42 842.648 120.131 843.182C119.841 843.716 119.696 844.364 119.696 845.125ZM137.008 858.182C136.036 858.182 135.201 858.057 134.502 857.807C133.803 857.562 133.221 857.239 132.755 856.835C132.295 856.438 131.928 856.011 131.656 855.557L133.258 854.432C133.44 854.67 133.67 854.943 133.948 855.25C134.227 855.562 134.607 855.832 135.09 856.06C135.579 856.293 136.218 856.409 137.008 856.409C138.065 856.409 138.937 856.153 139.624 855.642C140.312 855.131 140.656 854.33 140.656 853.239V850.58H140.485C140.337 850.818 140.127 851.114 139.854 851.466C139.587 851.812 139.201 852.122 138.695 852.395C138.195 852.662 137.519 852.795 136.667 852.795C135.61 852.795 134.661 852.545 133.82 852.045C132.985 851.545 132.323 850.818 131.835 849.864C131.352 848.909 131.11 847.75 131.11 846.386C131.11 845.045 131.346 843.878 131.817 842.884C132.289 841.884 132.945 841.111 133.786 840.565C134.627 840.014 135.599 839.739 136.701 839.739C137.553 839.739 138.229 839.881 138.729 840.165C139.235 840.443 139.621 840.761 139.888 841.119C140.161 841.472 140.371 841.761 140.519 841.989H140.724V839.909H142.667V853.375C142.667 854.5 142.411 855.415 141.9 856.119C141.394 856.83 140.712 857.349 139.854 857.679C139.002 858.014 138.053 858.182 137.008 858.182ZM136.94 850.989C137.746 850.989 138.428 850.804 138.985 850.435C139.542 850.065 139.965 849.534 140.255 848.841C140.545 848.148 140.69 847.318 140.69 846.352C140.69 845.409 140.548 844.577 140.263 843.855C139.979 843.134 139.559 842.568 139.002 842.159C138.445 841.75 137.758 841.545 136.94 841.545C136.087 841.545 135.377 841.761 134.809 842.193C134.246 842.625 133.823 843.205 133.539 843.932C133.261 844.659 133.121 845.466 133.121 846.352C133.121 847.261 133.263 848.065 133.548 848.764C133.837 849.457 134.263 850.003 134.826 850.401C135.394 850.793 136.099 850.989 136.94 850.989Z" fill="black"/>
    <path d="M699 2H15C7.8203 2 2 7.8203 2 15V1001C2 1008.18 7.8203 1014 15 1014H699C706.18 1014 712 1008.18 712 1001V15C712 7.8203 706.18 2 699 2Z" stroke="black" stroke-opacity="0.5" stroke-width="5"/>
  </g>
  <defs>
    <clipPath id="clip0_53_2349">
      <rect width="714" height="1016" fill="white"/>
    </clipPath>
    <clipPath id="clip1_53_2349">
      <rect width="640" height="640" fill="white" transform="translate(37 114)"/>
    </clipPath>
  </defs>
</svg>
