<svg width="967" height="576" viewBox="0 0 967 576" fill="none" xmlns="http://www.w3.org/2000/svg">
  <rect x="714" width="253" height="52" rx="26" fill="#9F2525"/>
  <path d="M729.994 39V14.2727H732.989V25.2841H746.173V14.2727H749.168V39H746.173V27.9403H732.989V39H729.994ZM762.31 39.3864C760.636 39.3864 759.167 38.9879 757.903 38.1911C756.647 37.3942 755.665 36.2794 754.957 34.8466C754.257 33.4138 753.907 31.7396 753.907 29.8239C753.907 27.892 754.257 26.2057 754.957 24.7649C755.665 23.3241 756.647 22.2053 757.903 21.4084C759.167 20.6115 760.636 20.2131 762.31 20.2131C763.984 20.2131 765.449 20.6115 766.705 21.4084C767.969 22.2053 768.951 23.3241 769.651 24.7649C770.359 26.2057 770.713 27.892 770.713 29.8239C770.713 31.7396 770.359 33.4138 769.651 34.8466C768.951 36.2794 767.969 37.3942 766.705 38.1911C765.449 38.9879 763.984 39.3864 762.31 39.3864ZM762.31 36.8267C763.582 36.8267 764.628 36.5007 765.449 35.8487C766.27 35.1967 766.878 34.3395 767.272 33.277C767.667 32.2145 767.864 31.0634 767.864 29.8239C767.864 28.5843 767.667 27.4292 767.272 26.3587C766.878 25.2881 766.27 24.4228 765.449 23.7628C764.628 23.1027 763.582 22.7727 762.31 22.7727C761.038 22.7727 759.992 23.1027 759.171 23.7628C758.35 24.4228 757.742 25.2881 757.348 26.3587C756.953 27.4292 756.756 28.5843 756.756 29.8239C756.756 31.0634 756.953 32.2145 757.348 33.277C757.742 34.3395 758.35 35.1967 759.171 35.8487C759.992 36.5007 761.038 36.8267 762.31 36.8267ZM788.199 24.608L785.64 25.3324C785.479 24.9058 785.241 24.4912 784.927 24.0888C784.622 23.6783 784.203 23.3402 783.672 23.0746C783.14 22.8089 782.46 22.6761 781.631 22.6761C780.496 22.6761 779.55 22.9377 778.794 23.4609C778.045 23.9761 777.671 24.6321 777.671 25.429C777.671 26.1373 777.929 26.6967 778.444 27.1072C778.959 27.5178 779.764 27.8598 780.858 28.1335L783.611 28.8097C785.269 29.2121 786.505 29.8279 787.318 30.657C788.131 31.478 788.537 32.5365 788.537 33.8324C788.537 34.8949 788.232 35.8447 787.62 36.6818C787.016 37.5189 786.171 38.179 785.084 38.6619C783.998 39.1449 782.734 39.3864 781.293 39.3864C779.402 39.3864 777.836 38.9759 776.596 38.1548C775.357 37.3338 774.572 36.1345 774.242 34.5568L776.947 33.8807C777.204 34.8788 777.691 35.6274 778.407 36.1264C779.132 36.6255 780.078 36.875 781.245 36.875C782.573 36.875 783.627 36.5933 784.408 36.0298C785.197 35.4583 785.591 34.7741 785.591 33.9773C785.591 33.3333 785.366 32.794 784.915 32.3594C784.465 31.9167 783.772 31.5866 782.839 31.3693L779.748 30.6449C778.049 30.2424 776.802 29.6186 776.005 28.7734C775.216 27.9202 774.822 26.8537 774.822 25.5739C774.822 24.5275 775.115 23.6018 775.703 22.7969C776.299 21.992 777.108 21.3601 778.13 20.9013C779.16 20.4425 780.327 20.2131 781.631 20.2131C783.466 20.2131 784.907 20.6155 785.954 21.4205C787.008 22.2254 787.757 23.2879 788.199 24.608ZM800.892 20.4545V22.8693H791.281V20.4545H800.892ZM794.082 16.0114H796.932V33.6875C796.932 34.4924 797.049 35.0961 797.282 35.4986C797.523 35.893 797.829 36.1586 798.2 36.2955C798.578 36.4242 798.976 36.4886 799.395 36.4886C799.709 36.4886 799.966 36.4725 800.168 36.4403C800.369 36.4001 800.53 36.3679 800.651 36.3438L801.23 38.9034C801.037 38.9759 800.767 39.0483 800.421 39.1207C800.075 39.2012 799.636 39.2415 799.105 39.2415C798.3 39.2415 797.511 39.0684 796.739 38.7223C795.974 38.3762 795.338 37.849 794.831 37.1406C794.332 36.4323 794.082 35.5388 794.082 34.4602V16.0114ZM835.025 22H832.031C831.853 21.1387 831.544 20.3821 831.101 19.7301C830.666 19.0781 830.135 18.5308 829.507 18.0881C828.887 17.6373 828.199 17.2992 827.442 17.0739C826.686 16.8485 825.897 16.7358 825.076 16.7358C823.579 16.7358 822.223 17.1141 821.007 17.8707C819.8 18.6274 818.838 19.7422 818.121 21.2152C817.413 22.6882 817.059 24.4953 817.059 26.6364C817.059 28.7775 817.413 30.5845 818.121 32.0575C818.838 33.5305 819.8 34.6454 821.007 35.402C822.223 36.1586 823.579 36.5369 825.076 36.5369C825.897 36.5369 826.686 36.4242 827.442 36.1989C828.199 35.9735 828.887 35.6394 829.507 35.1967C830.135 34.746 830.666 34.1946 831.101 33.5426C831.544 32.8826 831.853 32.1259 832.031 31.2727H835.025C834.799 32.5365 834.389 33.6674 833.793 34.6655C833.198 35.6636 832.457 36.5128 831.572 37.2131C830.686 37.9053 829.692 38.4325 828.589 38.7947C827.495 39.157 826.324 39.3381 825.076 39.3381C822.967 39.3381 821.092 38.8229 819.45 37.7926C817.808 36.7623 816.516 35.2973 815.574 33.3977C814.632 31.4981 814.161 29.2443 814.161 26.6364C814.161 24.0284 814.632 21.7746 815.574 19.875C816.516 17.9754 817.808 16.5104 819.45 15.4801C821.092 14.4498 822.967 13.9347 825.076 13.9347C826.324 13.9347 827.495 14.1158 828.589 14.478C829.692 14.8402 830.686 15.3714 831.572 16.0717C832.457 16.764 833.198 17.6091 833.793 18.6072C834.389 19.5973 834.799 20.7282 835.025 22ZM847.011 39.3864C845.337 39.3864 843.868 38.9879 842.604 38.1911C841.349 37.3942 840.367 36.2794 839.658 34.8466C838.958 33.4138 838.608 31.7396 838.608 29.8239C838.608 27.892 838.958 26.2057 839.658 24.7649C840.367 23.3241 841.349 22.2053 842.604 21.4084C843.868 20.6115 845.337 20.2131 847.011 20.2131C848.685 20.2131 850.15 20.6115 851.406 21.4084C852.67 22.2053 853.652 23.3241 854.352 24.7649C855.06 26.2057 855.415 27.892 855.415 29.8239C855.415 31.7396 855.06 33.4138 854.352 34.8466C853.652 36.2794 852.67 37.3942 851.406 38.1911C850.15 38.9879 848.685 39.3864 847.011 39.3864ZM847.011 36.8267C848.283 36.8267 849.329 36.5007 850.15 35.8487C850.971 35.1967 851.579 34.3395 851.974 33.277C852.368 32.2145 852.565 31.0634 852.565 29.8239C852.565 28.5843 852.368 27.4292 851.974 26.3587C851.579 25.2881 850.971 24.4228 850.15 23.7628C849.329 23.1027 848.283 22.7727 847.011 22.7727C845.739 22.7727 844.693 23.1027 843.872 23.7628C843.051 24.4228 842.443 25.2881 842.049 26.3587C841.654 27.4292 841.457 28.5843 841.457 29.8239C841.457 31.0634 841.654 32.2145 842.049 33.277C842.443 34.3395 843.051 35.1967 843.872 35.8487C844.693 36.5007 845.739 36.8267 847.011 36.8267ZM862.614 27.8438V39H859.764V20.4545H862.517V23.3523H862.759C863.193 22.4105 863.853 21.6539 864.739 21.0824C865.624 20.5028 866.767 20.2131 868.168 20.2131C869.423 20.2131 870.522 20.4706 871.464 20.9858C872.406 21.4929 873.138 22.2656 873.661 23.304C874.184 24.3343 874.446 25.6383 874.446 27.2159V39H871.597V27.4091C871.597 25.9522 871.218 24.8172 870.462 24.0043C869.705 23.1832 868.667 22.7727 867.347 22.7727C866.437 22.7727 865.624 22.9699 864.908 23.3643C864.199 23.7588 863.64 24.3343 863.229 25.0909C862.819 25.8475 862.614 26.7652 862.614 27.8438ZM887.718 20.4545V22.8693H878.107V20.4545H887.718ZM880.909 16.0114H883.758V33.6875C883.758 34.4924 883.875 35.0961 884.108 35.4986C884.35 35.893 884.655 36.1586 885.026 36.2955C885.404 36.4242 885.802 36.4886 886.221 36.4886C886.535 36.4886 886.793 36.4725 886.994 36.4403C887.195 36.4001 887.356 36.3679 887.477 36.3438L888.056 38.9034C887.863 38.9759 887.593 39.0483 887.247 39.1207C886.901 39.2012 886.463 39.2415 885.931 39.2415C885.126 39.2415 884.338 39.0684 883.565 38.7223C882.8 38.3762 882.164 37.849 881.657 37.1406C881.158 36.4323 880.909 35.5388 880.909 34.4602V16.0114ZM892.004 39V20.4545H894.757V23.2557H894.95C895.289 22.3381 895.9 21.5935 896.786 21.022C897.671 20.4505 898.669 20.1648 899.78 20.1648C899.989 20.1648 900.251 20.1688 900.565 20.1768C900.879 20.1849 901.116 20.197 901.277 20.2131V23.1108C901.181 23.0866 900.959 23.0504 900.613 23.0021C900.275 22.9458 899.917 22.9176 899.539 22.9176C898.637 22.9176 897.832 23.1068 897.124 23.4851C896.423 23.8553 895.868 24.3705 895.458 25.0305C895.055 25.6825 894.854 26.4271 894.854 27.2642V39H892.004ZM910.112 39.4347C908.937 39.4347 907.871 39.2133 906.913 38.7706C905.955 38.3198 905.194 37.6719 904.631 36.8267C904.067 35.9735 903.786 34.9432 903.786 33.7358C903.786 32.6733 903.995 31.812 904.413 31.152C904.832 30.4839 905.391 29.9607 906.092 29.5824C906.792 29.2041 907.565 28.9223 908.41 28.7372C909.263 28.544 910.12 28.3911 910.982 28.2784C912.108 28.1335 913.022 28.0249 913.722 27.9524C914.431 27.8719 914.946 27.7391 915.268 27.554C915.598 27.3688 915.763 27.0469 915.763 26.5881V26.4915C915.763 25.3002 915.437 24.3745 914.785 23.7145C914.141 23.0545 913.163 22.7244 911.851 22.7244C910.491 22.7244 909.424 23.0223 908.651 23.6179C907.879 24.2135 907.335 24.8494 907.021 25.5256L904.317 24.5597C904.8 23.4328 905.444 22.5554 906.249 21.9276C907.062 21.2917 907.947 20.849 908.905 20.5994C909.871 20.3419 910.821 20.2131 911.754 20.2131C912.35 20.2131 913.034 20.2855 913.807 20.4304C914.588 20.5672 915.34 20.853 916.065 21.2876C916.797 21.7223 917.405 22.3783 917.888 23.2557C918.371 24.133 918.612 25.3082 918.612 26.7812V39H915.763V36.4886H915.618C915.425 36.8911 915.103 37.3217 914.652 37.7805C914.201 38.2393 913.602 38.6297 912.853 38.9517C912.104 39.2737 911.191 39.4347 910.112 39.4347ZM910.547 36.875C911.674 36.875 912.624 36.6536 913.396 36.2109C914.177 35.7682 914.765 35.1967 915.159 34.4964C915.562 33.7962 915.763 33.0597 915.763 32.2869V29.679C915.642 29.8239 915.376 29.9567 914.966 30.0774C914.563 30.1901 914.097 30.2907 913.565 30.3793C913.042 30.4598 912.531 30.5322 912.032 30.5966C911.541 30.6529 911.143 30.7012 910.837 30.7415C910.096 30.8381 909.404 30.995 908.76 31.2124C908.124 31.4216 907.609 31.7396 907.214 32.1662C906.828 32.5848 906.635 33.1562 906.635 33.8807C906.635 34.8707 907.001 35.6193 907.734 36.1264C908.474 36.6255 909.412 36.875 910.547 36.875ZM931.347 39.3864C929.608 39.3864 928.111 38.9759 926.856 38.1548C925.6 37.3338 924.634 36.2029 923.958 34.7621C923.282 33.3213 922.944 31.6752 922.944 29.8239C922.944 27.9403 923.29 26.2782 923.982 24.8374C924.682 23.3885 925.656 22.2576 926.904 21.4446C928.16 20.6236 929.625 20.2131 931.299 20.2131C932.603 20.2131 933.778 20.4545 934.824 20.9375C935.871 21.4205 936.728 22.0966 937.396 22.9659C938.064 23.8352 938.479 24.8494 938.64 26.0085H935.79C935.573 25.1634 935.09 24.4148 934.341 23.7628C933.601 23.1027 932.603 22.7727 931.347 22.7727C930.236 22.7727 929.262 23.0625 928.425 23.642C927.596 24.2135 926.948 25.0225 926.481 26.0689C926.023 27.1072 925.793 28.3267 925.793 29.7273C925.793 31.16 926.019 32.4077 926.469 33.4702C926.928 34.5327 927.572 35.3577 928.401 35.9453C929.238 36.5329 930.22 36.8267 931.347 36.8267C932.088 36.8267 932.76 36.6979 933.363 36.4403C933.967 36.1828 934.478 35.8125 934.897 35.3295C935.315 34.8466 935.613 34.267 935.79 33.5909H938.64C938.479 34.6856 938.08 35.6716 937.444 36.549C936.817 37.4183 935.983 38.1106 934.945 38.6257C933.915 39.1328 932.715 39.3864 931.347 39.3864ZM950.871 20.4545V22.8693H941.26V20.4545H950.871ZM944.061 16.0114H946.91V33.6875C946.91 34.4924 947.027 35.0961 947.26 35.4986C947.502 35.893 947.808 36.1586 948.178 36.2955C948.556 36.4242 948.955 36.4886 949.373 36.4886C949.687 36.4886 949.945 36.4725 950.146 36.4403C950.347 36.4001 950.508 36.3679 950.629 36.3438L951.209 38.9034C951.015 38.9759 950.746 39.0483 950.4 39.1207C950.054 39.2012 949.615 39.2415 949.084 39.2415C948.279 39.2415 947.49 39.0684 946.717 38.7223C945.952 38.3762 945.317 37.849 944.809 37.1406C944.31 36.4323 944.061 35.5388 944.061 34.4602V16.0114Z" fill="white"/>
  <mask id="path-3-outside-1_0_1" maskUnits="userSpaceOnUse" x="606" y="151" width="207" height="27" fill="black">
    <rect fill="white" x="606" y="151" width="207" height="27"/>
    <path d="M622.284 155.091V174H620.068L609.764 159.153H609.58V174H607.29V155.091H609.506L619.847 169.974H620.031V155.091H622.284ZM626.866 174V155.091H638.204V157.122H629.156V163.511H637.355V165.543H629.156V174H626.866ZM641.092 157.122V155.091H655.273V157.122H649.327V174H647.038V157.122H641.092ZM666.092 153.486H668.224V156.866H674.854V153.486H676.96V163.756H666.092V153.486ZM668.224 158.556V162.014H674.854V158.556H668.224ZM681.198 152.524H683.356V164.64H681.198V152.524ZM682.42 157.568H686.814V159.362H682.42V157.568ZM668.432 165.784H683.356V171.478H670.616V175.014H668.484V169.866H681.25V167.5H668.432V165.784ZM668.484 174.052H684.214V175.768H668.484V174.052ZM706.78 152.524H708.834V167.396H706.78V152.524ZM702.958 158.894H707.404V160.688H702.958V158.894ZM701.762 152.992H703.79V166.564H701.762V152.992ZM688.918 155.332H700.826V157.048H688.918V155.332ZM694.898 158.244C697.836 158.244 699.89 159.856 699.89 162.274C699.89 164.718 697.836 166.304 694.898 166.304C691.934 166.304 689.88 164.718 689.88 162.274C689.88 159.856 691.934 158.244 694.898 158.244ZM694.898 159.856C693.052 159.856 691.804 160.818 691.804 162.274C691.804 163.756 693.052 164.692 694.898 164.692C696.718 164.692 697.966 163.756 697.966 162.274C697.966 160.818 696.718 159.856 694.898 159.856ZM693.832 152.706H695.938V156.294H693.832V152.706ZM701.138 167.812C706.026 167.812 708.964 169.268 708.964 171.894C708.964 174.494 706.026 175.976 701.138 175.976C696.198 175.976 693.286 174.494 693.286 171.894C693.286 169.268 696.198 167.812 701.138 167.812ZM701.138 169.476C697.524 169.476 695.418 170.334 695.418 171.894C695.418 173.454 697.524 174.338 701.138 174.338C704.7 174.338 706.832 173.454 706.832 171.894C706.832 170.334 704.7 169.476 701.138 169.476ZM723.009 165.186H739.155V166.928H723.009V165.186ZM720.279 171.218H741.573V173.012H720.279V171.218ZM723.009 154.526H738.895V156.294H725.193V165.732H723.009V154.526ZM724.491 159.778H738.401V161.494H724.491V159.778ZM761.928 152.524H763.982V170.022H761.928V152.524ZM758.158 159.544H762.578V161.338H758.158V159.544ZM756.754 152.966H758.782V169.372H756.754V152.966ZM748.668 173.74H764.71V175.508H748.668V173.74ZM748.668 168.436H750.826V174.364H748.668V168.436ZM745.262 164.77H746.77C750.072 164.77 752.516 164.666 755.402 164.094L755.61 165.836C752.646 166.408 750.176 166.538 746.77 166.538H745.262V164.77ZM745.21 154.552H754.05V161.26H747.342V165.706H745.262V159.622H751.97V156.294H745.21V154.552ZM772.976 155.488H774.692V157.412C774.692 161.234 772.82 164.77 769.31 166.278L768.14 164.614C771.26 163.34 772.976 160.402 772.976 157.412V155.488ZM773.366 155.488H775.056V157.386C775.056 160.116 776.694 162.794 779.606 163.964L778.488 165.654C775.108 164.25 773.366 160.974 773.366 157.386V155.488ZM768.66 154.5H779.164V156.268H768.66V154.5ZM785.846 152.55H787.9V166.746H785.846V152.55ZM782.05 158.712H786.496V160.48H782.05V158.712ZM780.854 152.966H782.882V166.642H780.854V152.966ZM772.144 168.02H787.9V176.028H785.768V169.788H772.144V168.02ZM804.486 155.982H809.764V157.776H804.486V155.982ZM804.486 160.818H809.764V162.586H804.486V160.818ZM797.908 153.85H799.65V156.84C799.65 161.442 797.128 165.368 793.202 166.954L792.058 165.238C795.568 163.886 797.908 160.532 797.908 156.84V153.85ZM798.298 153.85H800.066V156.84C800.066 160.272 802.328 163.522 805.734 164.874L804.538 166.564C800.82 165.004 798.298 161.208 798.298 156.84V153.85ZM809.192 152.55H811.35V170.074H809.192V152.55ZM796.244 173.74H811.922V175.508H796.244V173.74ZM796.244 168.306H798.402V174.702H796.244V168.306Z"/>
  </mask>
  <path d="M622.284 155.091V174H620.068L609.764 159.153H609.58V174H607.29V155.091H609.506L619.847 169.974H620.031V155.091H622.284ZM626.866 174V155.091H638.204V157.122H629.156V163.511H637.355V165.543H629.156V174H626.866ZM641.092 157.122V155.091H655.273V157.122H649.327V174H647.038V157.122H641.092ZM666.092 153.486H668.224V156.866H674.854V153.486H676.96V163.756H666.092V153.486ZM668.224 158.556V162.014H674.854V158.556H668.224ZM681.198 152.524H683.356V164.64H681.198V152.524ZM682.42 157.568H686.814V159.362H682.42V157.568ZM668.432 165.784H683.356V171.478H670.616V175.014H668.484V169.866H681.25V167.5H668.432V165.784ZM668.484 174.052H684.214V175.768H668.484V174.052ZM706.78 152.524H708.834V167.396H706.78V152.524ZM702.958 158.894H707.404V160.688H702.958V158.894ZM701.762 152.992H703.79V166.564H701.762V152.992ZM688.918 155.332H700.826V157.048H688.918V155.332ZM694.898 158.244C697.836 158.244 699.89 159.856 699.89 162.274C699.89 164.718 697.836 166.304 694.898 166.304C691.934 166.304 689.88 164.718 689.88 162.274C689.88 159.856 691.934 158.244 694.898 158.244ZM694.898 159.856C693.052 159.856 691.804 160.818 691.804 162.274C691.804 163.756 693.052 164.692 694.898 164.692C696.718 164.692 697.966 163.756 697.966 162.274C697.966 160.818 696.718 159.856 694.898 159.856ZM693.832 152.706H695.938V156.294H693.832V152.706ZM701.138 167.812C706.026 167.812 708.964 169.268 708.964 171.894C708.964 174.494 706.026 175.976 701.138 175.976C696.198 175.976 693.286 174.494 693.286 171.894C693.286 169.268 696.198 167.812 701.138 167.812ZM701.138 169.476C697.524 169.476 695.418 170.334 695.418 171.894C695.418 173.454 697.524 174.338 701.138 174.338C704.7 174.338 706.832 173.454 706.832 171.894C706.832 170.334 704.7 169.476 701.138 169.476ZM723.009 165.186H739.155V166.928H723.009V165.186ZM720.279 171.218H741.573V173.012H720.279V171.218ZM723.009 154.526H738.895V156.294H725.193V165.732H723.009V154.526ZM724.491 159.778H738.401V161.494H724.491V159.778ZM761.928 152.524H763.982V170.022H761.928V152.524ZM758.158 159.544H762.578V161.338H758.158V159.544ZM756.754 152.966H758.782V169.372H756.754V152.966ZM748.668 173.74H764.71V175.508H748.668V173.74ZM748.668 168.436H750.826V174.364H748.668V168.436ZM745.262 164.77H746.77C750.072 164.77 752.516 164.666 755.402 164.094L755.61 165.836C752.646 166.408 750.176 166.538 746.77 166.538H745.262V164.77ZM745.21 154.552H754.05V161.26H747.342V165.706H745.262V159.622H751.97V156.294H745.21V154.552ZM772.976 155.488H774.692V157.412C774.692 161.234 772.82 164.77 769.31 166.278L768.14 164.614C771.26 163.34 772.976 160.402 772.976 157.412V155.488ZM773.366 155.488H775.056V157.386C775.056 160.116 776.694 162.794 779.606 163.964L778.488 165.654C775.108 164.25 773.366 160.974 773.366 157.386V155.488ZM768.66 154.5H779.164V156.268H768.66V154.5ZM785.846 152.55H787.9V166.746H785.846V152.55ZM782.05 158.712H786.496V160.48H782.05V158.712ZM780.854 152.966H782.882V166.642H780.854V152.966ZM772.144 168.02H787.9V176.028H785.768V169.788H772.144V168.02ZM804.486 155.982H809.764V157.776H804.486V155.982ZM804.486 160.818H809.764V162.586H804.486V160.818ZM797.908 153.85H799.65V156.84C799.65 161.442 797.128 165.368 793.202 166.954L792.058 165.238C795.568 163.886 797.908 160.532 797.908 156.84V153.85ZM798.298 153.85H800.066V156.84C800.066 160.272 802.328 163.522 805.734 164.874L804.538 166.564C800.82 165.004 798.298 161.208 798.298 156.84V153.85ZM809.192 152.55H811.35V170.074H809.192V152.55ZM796.244 173.74H811.922V175.508H796.244V173.74ZM796.244 168.306H798.402V174.702H796.244V168.306Z" fill="white"/>
  <path d="M622.284 155.091H623.284V154.091H622.284V155.091ZM622.284 174V175H623.284V174H622.284ZM620.068 174L619.247 174.57L619.545 175H620.068V174ZM609.764 159.153L610.586 158.583L610.287 158.153H609.764V159.153ZM609.58 159.153V158.153H608.58V159.153H609.58ZM609.58 174V175H610.58V174H609.58ZM607.29 174H606.29V175H607.29V174ZM607.29 155.091V154.091H606.29V155.091H607.29ZM609.506 155.091L610.327 154.52L610.029 154.091H609.506V155.091ZM619.847 169.974L619.025 170.545L619.324 170.974H619.847V169.974ZM620.031 169.974V170.974H621.031V169.974H620.031ZM620.031 155.091V154.091H619.031V155.091H620.031ZM621.284 155.091V174H623.284V155.091H621.284ZM622.284 173H620.068V175H622.284V173ZM620.89 173.43L610.586 158.583L608.943 159.724L619.247 174.57L620.89 173.43ZM609.764 158.153H609.58V160.153H609.764V158.153ZM608.58 159.153V174H610.58V159.153H608.58ZM609.58 173H607.29V175H609.58V173ZM608.29 174V155.091H606.29V174H608.29ZM607.29 156.091H609.506V154.091H607.29V156.091ZM608.684 155.661L619.025 170.545L620.668 169.404L610.327 154.52L608.684 155.661ZM619.847 170.974H620.031V168.974H619.847V170.974ZM621.031 169.974V155.091H619.031V169.974H621.031ZM620.031 156.091H622.284V154.091H620.031V156.091ZM626.866 174H625.866V175H626.866V174ZM626.866 155.091V154.091H625.866V155.091H626.866ZM638.204 155.091H639.204V154.091H638.204V155.091ZM638.204 157.122V158.122H639.204V157.122H638.204ZM629.156 157.122V156.122H628.156V157.122H629.156ZM629.156 163.511H628.156V164.511H629.156V163.511ZM637.355 163.511H638.355V162.511H637.355V163.511ZM637.355 165.543V166.543H638.355V165.543H637.355ZM629.156 165.543V164.543H628.156V165.543H629.156ZM629.156 174V175H630.156V174H629.156ZM627.866 174V155.091H625.866V174H627.866ZM626.866 156.091H638.204V154.091H626.866V156.091ZM637.204 155.091V157.122H639.204V155.091H637.204ZM638.204 156.122H629.156V158.122H638.204V156.122ZM628.156 157.122V163.511H630.156V157.122H628.156ZM629.156 164.511H637.355V162.511H629.156V164.511ZM636.355 163.511V165.543H638.355V163.511H636.355ZM637.355 164.543H629.156V166.543H637.355V164.543ZM628.156 165.543V174H630.156V165.543H628.156ZM629.156 173H626.866V175H629.156V173ZM641.092 157.122H640.092V158.122H641.092V157.122ZM641.092 155.091V154.091H640.092V155.091H641.092ZM655.273 155.091H656.273V154.091H655.273V155.091ZM655.273 157.122V158.122H656.273V157.122H655.273ZM649.327 157.122V156.122H648.327V157.122H649.327ZM649.327 174V175H650.327V174H649.327ZM647.038 174H646.038V175H647.038V174ZM647.038 157.122H648.038V156.122H647.038V157.122ZM642.092 157.122V155.091H640.092V157.122H642.092ZM641.092 156.091H655.273V154.091H641.092V156.091ZM654.273 155.091V157.122H656.273V155.091H654.273ZM655.273 156.122H649.327V158.122H655.273V156.122ZM648.327 157.122V174H650.327V157.122H648.327ZM649.327 173H647.038V175H649.327V173ZM648.038 174V157.122H646.038V174H648.038ZM647.038 156.122H641.092V158.122H647.038V156.122ZM666.092 153.486V152.486H665.092V153.486H666.092ZM668.224 153.486H669.224V152.486H668.224V153.486ZM668.224 156.866H667.224V157.866H668.224V156.866ZM674.854 156.866V157.866H675.854V156.866H674.854ZM674.854 153.486V152.486H673.854V153.486H674.854ZM676.96 153.486H677.96V152.486H676.96V153.486ZM676.96 163.756V164.756H677.96V163.756H676.96ZM666.092 163.756H665.092V164.756H666.092V163.756ZM668.224 158.556V157.556H667.224V158.556H668.224ZM668.224 162.014H667.224V163.014H668.224V162.014ZM674.854 162.014V163.014H675.854V162.014H674.854ZM674.854 158.556H675.854V157.556H674.854V158.556ZM681.198 152.524V151.524H680.198V152.524H681.198ZM683.356 152.524H684.356V151.524H683.356V152.524ZM683.356 164.64V165.64H684.356V164.64H683.356ZM681.198 164.64H680.198V165.64H681.198V164.64ZM682.42 157.568V156.568H681.42V157.568H682.42ZM686.814 157.568H687.814V156.568H686.814V157.568ZM686.814 159.362V160.362H687.814V159.362H686.814ZM682.42 159.362H681.42V160.362H682.42V159.362ZM668.432 165.784V164.784H667.432V165.784H668.432ZM683.356 165.784H684.356V164.784H683.356V165.784ZM683.356 171.478V172.478H684.356V171.478H683.356ZM670.616 171.478V170.478H669.616V171.478H670.616ZM670.616 175.014V176.014H671.616V175.014H670.616ZM668.484 175.014H667.484V176.014H668.484V175.014ZM668.484 169.866V168.866H667.484V169.866H668.484ZM681.25 169.866V170.866H682.25V169.866H681.25ZM681.25 167.5H682.25V166.5H681.25V167.5ZM668.432 167.5H667.432V168.5H668.432V167.5ZM668.484 174.052V173.052H667.484V174.052H668.484ZM684.214 174.052H685.214V173.052H684.214V174.052ZM684.214 175.768V176.768H685.214V175.768H684.214ZM668.484 175.768H667.484V176.768H668.484V175.768ZM666.092 154.486H668.224V152.486H666.092V154.486ZM667.224 153.486V156.866H669.224V153.486H667.224ZM668.224 157.866H674.854V155.866H668.224V157.866ZM675.854 156.866V153.486H673.854V156.866H675.854ZM674.854 154.486H676.96V152.486H674.854V154.486ZM675.96 153.486V163.756H677.96V153.486H675.96ZM676.96 162.756H666.092V164.756H676.96V162.756ZM667.092 163.756V153.486H665.092V163.756H667.092ZM667.224 158.556V162.014H669.224V158.556H667.224ZM668.224 163.014H674.854V161.014H668.224V163.014ZM675.854 162.014V158.556H673.854V162.014H675.854ZM674.854 157.556H668.224V159.556H674.854V157.556ZM681.198 153.524H683.356V151.524H681.198V153.524ZM682.356 152.524V164.64H684.356V152.524H682.356ZM683.356 163.64H681.198V165.64H683.356V163.64ZM682.198 164.64V152.524H680.198V164.64H682.198ZM682.42 158.568H686.814V156.568H682.42V158.568ZM685.814 157.568V159.362H687.814V157.568H685.814ZM686.814 158.362H682.42V160.362H686.814V158.362ZM683.42 159.362V157.568H681.42V159.362H683.42ZM668.432 166.784H683.356V164.784H668.432V166.784ZM682.356 165.784V171.478H684.356V165.784H682.356ZM683.356 170.478H670.616V172.478H683.356V170.478ZM669.616 171.478V175.014H671.616V171.478H669.616ZM670.616 174.014H668.484V176.014H670.616V174.014ZM669.484 175.014V169.866H667.484V175.014H669.484ZM668.484 170.866H681.25V168.866H668.484V170.866ZM682.25 169.866V167.5H680.25V169.866H682.25ZM681.25 166.5H668.432V168.5H681.25V166.5ZM669.432 167.5V165.784H667.432V167.5H669.432ZM668.484 175.052H684.214V173.052H668.484V175.052ZM683.214 174.052V175.768H685.214V174.052H683.214ZM684.214 174.768H668.484V176.768H684.214V174.768ZM669.484 175.768V174.052H667.484V175.768H669.484ZM706.78 152.524V151.524H705.78V152.524H706.78ZM708.834 152.524H709.834V151.524H708.834V152.524ZM708.834 167.396V168.396H709.834V167.396H708.834ZM706.78 167.396H705.78V168.396H706.78V167.396ZM702.958 158.894V157.894H701.958V158.894H702.958ZM707.404 158.894H708.404V157.894H707.404V158.894ZM707.404 160.688V161.688H708.404V160.688H707.404ZM702.958 160.688H701.958V161.688H702.958V160.688ZM701.762 152.992V151.992H700.762V152.992H701.762ZM703.79 152.992H704.79V151.992H703.79V152.992ZM703.79 166.564V167.564H704.79V166.564H703.79ZM701.762 166.564H700.762V167.564H701.762V166.564ZM688.918 155.332V154.332H687.918V155.332H688.918ZM700.826 155.332H701.826V154.332H700.826V155.332ZM700.826 157.048V158.048H701.826V157.048H700.826ZM688.918 157.048H687.918V158.048H688.918V157.048ZM693.832 152.706V151.706H692.832V152.706H693.832ZM695.938 152.706H696.938V151.706H695.938V152.706ZM695.938 156.294V157.294H696.938V156.294H695.938ZM693.832 156.294H692.832V157.294H693.832V156.294ZM706.78 153.524H708.834V151.524H706.78V153.524ZM707.834 152.524V167.396H709.834V152.524H707.834ZM708.834 166.396H706.78V168.396H708.834V166.396ZM707.78 167.396V152.524H705.78V167.396H707.78ZM702.958 159.894H707.404V157.894H702.958V159.894ZM706.404 158.894V160.688H708.404V158.894H706.404ZM707.404 159.688H702.958V161.688H707.404V159.688ZM703.958 160.688V158.894H701.958V160.688H703.958ZM701.762 153.992H703.79V151.992H701.762V153.992ZM702.79 152.992V166.564H704.79V152.992H702.79ZM703.79 165.564H701.762V167.564H703.79V165.564ZM702.762 166.564V152.992H700.762V166.564H702.762ZM688.918 156.332H700.826V154.332H688.918V156.332ZM699.826 155.332V157.048H701.826V155.332H699.826ZM700.826 156.048H688.918V158.048H700.826V156.048ZM689.918 157.048V155.332H687.918V157.048H689.918ZM694.898 159.244C696.192 159.244 697.204 159.599 697.871 160.133C698.519 160.652 698.89 161.375 698.89 162.274H700.89C700.89 160.755 700.234 159.463 699.121 158.572C698.026 157.695 696.542 157.244 694.898 157.244V159.244ZM698.89 162.274C698.89 163.188 698.518 163.909 697.873 164.424C697.208 164.953 696.196 165.304 694.898 165.304V167.304C696.538 167.304 698.022 166.862 699.119 165.987C700.235 165.098 700.89 163.804 700.89 162.274H698.89ZM694.898 165.304C693.585 165.304 692.567 164.952 691.899 164.422C691.252 163.908 690.88 163.188 690.88 162.274H688.88C688.88 163.804 689.535 165.099 690.656 165.989C691.756 166.863 693.247 167.304 694.898 167.304V165.304ZM690.88 162.274C690.88 161.375 691.25 160.653 691.901 160.134C692.57 159.6 693.589 159.244 694.898 159.244V157.244C693.243 157.244 691.753 157.694 690.654 158.571C689.537 159.462 688.88 160.755 688.88 162.274H690.88ZM694.898 158.856C693.811 158.856 692.804 159.139 692.045 159.73C691.264 160.338 690.804 161.231 690.804 162.274H692.804C692.804 161.861 692.968 161.545 693.273 161.308C693.599 161.054 694.139 160.856 694.898 160.856V158.856ZM690.804 162.274C690.804 163.326 691.261 164.222 692.047 164.83C692.81 165.419 693.817 165.692 694.898 165.692V163.692C694.133 163.692 693.593 163.497 693.27 163.247C692.971 163.017 692.804 162.704 692.804 162.274H690.804ZM694.898 165.692C695.969 165.692 696.97 165.417 697.728 164.828C698.51 164.221 698.966 163.326 698.966 162.274H696.966C696.966 162.704 696.798 163.018 696.501 163.249C696.18 163.499 695.647 163.692 694.898 163.692V165.692ZM698.966 162.274C698.966 161.231 698.507 160.339 697.731 159.732C696.976 159.14 695.975 158.856 694.898 158.856V160.856C695.641 160.856 696.174 161.053 696.498 161.306C696.801 161.544 696.966 161.861 696.966 162.274H698.966ZM693.832 153.706H695.938V151.706H693.832V153.706ZM694.938 152.706V156.294H696.938V152.706H694.938ZM695.938 155.294H693.832V157.294H695.938V155.294ZM694.832 156.294V152.706H692.832V156.294H694.832ZM701.138 168.812C703.507 168.812 705.282 169.169 706.427 169.757C707.526 170.323 707.964 171.045 707.964 171.894H709.964C709.964 170.117 708.933 168.798 707.342 167.979C705.795 167.183 703.657 166.812 701.138 166.812V168.812ZM707.964 171.894C707.964 172.728 707.529 173.451 706.425 174.022C705.28 174.613 703.505 174.976 701.138 174.976V176.976C703.659 176.976 705.797 176.598 707.343 175.798C708.931 174.978 709.964 173.66 709.964 171.894H707.964ZM701.138 174.976C698.744 174.976 696.963 174.613 695.819 174.022C694.718 173.453 694.286 172.731 694.286 171.894H692.286C692.286 173.657 693.31 174.976 694.9 175.798C696.447 176.598 698.592 176.976 701.138 176.976V174.976ZM694.286 171.894C694.286 171.042 694.721 170.322 695.817 169.757C696.961 169.169 698.741 168.812 701.138 168.812V166.812C698.595 166.812 696.45 167.183 694.902 167.979C693.307 168.799 692.286 170.12 692.286 171.894H694.286ZM701.138 168.476C699.276 168.476 697.693 168.694 696.537 169.178C695.372 169.665 694.418 170.542 694.418 171.894H696.418C696.418 171.686 696.517 171.354 697.309 171.022C698.109 170.687 699.386 170.476 701.138 170.476V168.476ZM694.418 171.894C694.418 173.242 695.367 174.126 696.531 174.621C697.689 175.113 699.273 175.338 701.138 175.338V173.338C699.389 173.338 698.114 173.121 697.314 172.781C696.523 172.444 696.418 172.106 696.418 171.894H694.418ZM701.138 175.338C702.979 175.338 704.556 175.113 705.712 174.621C706.872 174.128 707.832 173.246 707.832 171.894H705.832C705.832 172.102 705.726 172.442 704.929 172.781C704.129 173.121 702.86 173.338 701.138 173.338V175.338ZM707.832 171.894C707.832 170.538 706.867 169.663 705.707 169.178C704.552 168.694 702.976 168.476 701.138 168.476V170.476C702.862 170.476 704.133 170.687 704.935 171.022C705.732 171.356 705.832 171.69 705.832 171.894H707.832ZM723.009 165.186V164.186H722.009V165.186H723.009ZM739.155 165.186H740.155V164.186H739.155V165.186ZM739.155 166.928V167.928H740.155V166.928H739.155ZM723.009 166.928H722.009V167.928H723.009V166.928ZM720.279 171.218V170.218H719.279V171.218H720.279ZM741.573 171.218H742.573V170.218H741.573V171.218ZM741.573 173.012V174.012H742.573V173.012H741.573ZM720.279 173.012H719.279V174.012H720.279V173.012ZM723.009 154.526V153.526H722.009V154.526H723.009ZM738.895 154.526H739.895V153.526H738.895V154.526ZM738.895 156.294V157.294H739.895V156.294H738.895ZM725.193 156.294V155.294H724.193V156.294H725.193ZM725.193 165.732V166.732H726.193V165.732H725.193ZM723.009 165.732H722.009V166.732H723.009V165.732ZM724.491 159.778V158.778H723.491V159.778H724.491ZM738.401 159.778H739.401V158.778H738.401V159.778ZM738.401 161.494V162.494H739.401V161.494H738.401ZM724.491 161.494H723.491V162.494H724.491V161.494ZM723.009 166.186H739.155V164.186H723.009V166.186ZM738.155 165.186V166.928H740.155V165.186H738.155ZM739.155 165.928H723.009V167.928H739.155V165.928ZM724.009 166.928V165.186H722.009V166.928H724.009ZM720.279 172.218H741.573V170.218H720.279V172.218ZM740.573 171.218V173.012H742.573V171.218H740.573ZM741.573 172.012H720.279V174.012H741.573V172.012ZM721.279 173.012V171.218H719.279V173.012H721.279ZM723.009 155.526H738.895V153.526H723.009V155.526ZM737.895 154.526V156.294H739.895V154.526H737.895ZM738.895 155.294H725.193V157.294H738.895V155.294ZM724.193 156.294V165.732H726.193V156.294H724.193ZM725.193 164.732H723.009V166.732H725.193V164.732ZM724.009 165.732V154.526H722.009V165.732H724.009ZM724.491 160.778H738.401V158.778H724.491V160.778ZM737.401 159.778V161.494H739.401V159.778H737.401ZM738.401 160.494H724.491V162.494H738.401V160.494ZM725.491 161.494V159.778H723.491V161.494H725.491ZM761.928 152.524V151.524H760.928V152.524H761.928ZM763.982 152.524H764.982V151.524H763.982V152.524ZM763.982 170.022V171.022H764.982V170.022H763.982ZM761.928 170.022H760.928V171.022H761.928V170.022ZM758.158 159.544V158.544H757.158V159.544H758.158ZM762.578 159.544H763.578V158.544H762.578V159.544ZM762.578 161.338V162.338H763.578V161.338H762.578ZM758.158 161.338H757.158V162.338H758.158V161.338ZM756.754 152.966V151.966H755.754V152.966H756.754ZM758.782 152.966H759.782V151.966H758.782V152.966ZM758.782 169.372V170.372H759.782V169.372H758.782ZM756.754 169.372H755.754V170.372H756.754V169.372ZM748.668 173.74V172.74H747.668V173.74H748.668ZM764.71 173.74H765.71V172.74H764.71V173.74ZM764.71 175.508V176.508H765.71V175.508H764.71ZM748.668 175.508H747.668V176.508H748.668V175.508ZM748.668 168.436V167.436H747.668V168.436H748.668ZM750.826 168.436H751.826V167.436H750.826V168.436ZM750.826 174.364V175.364H751.826V174.364H750.826ZM748.668 174.364H747.668V175.364H748.668V174.364ZM745.262 164.77V163.77H744.262V164.77H745.262ZM755.402 164.094L756.395 163.975L756.267 162.903L755.208 163.113L755.402 164.094ZM755.61 165.836L755.8 166.818L756.714 166.642L756.603 165.717L755.61 165.836ZM745.262 166.538H744.262V167.538H745.262V166.538ZM745.21 154.552V153.552H744.21V154.552H745.21ZM754.05 154.552H755.05V153.552H754.05V154.552ZM754.05 161.26V162.26H755.05V161.26H754.05ZM747.342 161.26V160.26H746.342V161.26H747.342ZM747.342 165.706V166.706H748.342V165.706H747.342ZM745.262 165.706H744.262V166.706H745.262V165.706ZM745.262 159.622V158.622H744.262V159.622H745.262ZM751.97 159.622V160.622H752.97V159.622H751.97ZM751.97 156.294H752.97V155.294H751.97V156.294ZM745.21 156.294H744.21V157.294H745.21V156.294ZM761.928 153.524H763.982V151.524H761.928V153.524ZM762.982 152.524V170.022H764.982V152.524H762.982ZM763.982 169.022H761.928V171.022H763.982V169.022ZM762.928 170.022V152.524H760.928V170.022H762.928ZM758.158 160.544H762.578V158.544H758.158V160.544ZM761.578 159.544V161.338H763.578V159.544H761.578ZM762.578 160.338H758.158V162.338H762.578V160.338ZM759.158 161.338V159.544H757.158V161.338H759.158ZM756.754 153.966H758.782V151.966H756.754V153.966ZM757.782 152.966V169.372H759.782V152.966H757.782ZM758.782 168.372H756.754V170.372H758.782V168.372ZM757.754 169.372V152.966H755.754V169.372H757.754ZM748.668 174.74H764.71V172.74H748.668V174.74ZM763.71 173.74V175.508H765.71V173.74H763.71ZM764.71 174.508H748.668V176.508H764.71V174.508ZM749.668 175.508V173.74H747.668V175.508H749.668ZM748.668 169.436H750.826V167.436H748.668V169.436ZM749.826 168.436V174.364H751.826V168.436H749.826ZM750.826 173.364H748.668V175.364H750.826V173.364ZM749.668 174.364V168.436H747.668V174.364H749.668ZM745.262 165.77H746.77V163.77H745.262V165.77ZM746.77 165.77C750.096 165.77 752.616 165.666 755.597 165.075L755.208 163.113C752.417 163.666 750.049 163.77 746.77 163.77V165.77ZM754.41 164.213L754.618 165.955L756.603 165.717L756.395 163.975L754.41 164.213ZM755.421 164.854C752.545 165.409 750.146 165.538 746.77 165.538V167.538C750.207 167.538 752.748 167.407 755.8 166.818L755.421 164.854ZM746.77 165.538H745.262V167.538H746.77V165.538ZM746.262 166.538V164.77H744.262V166.538H746.262ZM745.21 155.552H754.05V153.552H745.21V155.552ZM753.05 154.552V161.26H755.05V154.552H753.05ZM754.05 160.26H747.342V162.26H754.05V160.26ZM746.342 161.26V165.706H748.342V161.26H746.342ZM747.342 164.706H745.262V166.706H747.342V164.706ZM746.262 165.706V159.622H744.262V165.706H746.262ZM745.262 160.622H751.97V158.622H745.262V160.622ZM752.97 159.622V156.294H750.97V159.622H752.97ZM751.97 155.294H745.21V157.294H751.97V155.294ZM746.21 156.294V154.552H744.21V156.294H746.21ZM772.976 155.488V154.488H771.976V155.488H772.976ZM774.692 155.488H775.692V154.488H774.692V155.488ZM769.31 166.278L768.492 166.853L768.959 167.517L769.705 167.197L769.31 166.278ZM768.14 164.614L767.762 163.688L766.601 164.163L767.322 165.189L768.14 164.614ZM773.366 155.488V154.488H772.366V155.488H773.366ZM775.056 155.488H776.056V154.488H775.056V155.488ZM779.606 163.964L780.44 164.516L781.117 163.493L779.979 163.036L779.606 163.964ZM778.488 165.654L778.105 166.577L778.867 166.894L779.322 166.206L778.488 165.654ZM768.66 154.5V153.5H767.66V154.5H768.66ZM779.164 154.5H780.164V153.5H779.164V154.5ZM779.164 156.268V157.268H780.164V156.268H779.164ZM768.66 156.268H767.66V157.268H768.66V156.268ZM785.846 152.55V151.55H784.846V152.55H785.846ZM787.9 152.55H788.9V151.55H787.9V152.55ZM787.9 166.746V167.746H788.9V166.746H787.9ZM785.846 166.746H784.846V167.746H785.846V166.746ZM782.05 158.712V157.712H781.05V158.712H782.05ZM786.496 158.712H787.496V157.712H786.496V158.712ZM786.496 160.48V161.48H787.496V160.48H786.496ZM782.05 160.48H781.05V161.48H782.05V160.48ZM780.854 152.966V151.966H779.854V152.966H780.854ZM782.882 152.966H783.882V151.966H782.882V152.966ZM782.882 166.642V167.642H783.882V166.642H782.882ZM780.854 166.642H779.854V167.642H780.854V166.642ZM772.144 168.02V167.02H771.144V168.02H772.144ZM787.9 168.02H788.9V167.02H787.9V168.02ZM787.9 176.028V177.028H788.9V176.028H787.9ZM785.768 176.028H784.768V177.028H785.768V176.028ZM785.768 169.788H786.768V168.788H785.768V169.788ZM772.144 169.788H771.144V170.788H772.144V169.788ZM772.976 156.488H774.692V154.488H772.976V156.488ZM773.692 155.488V157.412H775.692V155.488H773.692ZM773.692 157.412C773.692 160.923 771.984 164.041 768.916 165.359L769.705 167.197C773.657 165.499 775.692 161.545 775.692 157.412H773.692ZM770.128 165.703L768.958 164.039L767.322 165.189L768.492 166.853L770.128 165.703ZM768.518 165.54C772.041 164.101 773.976 160.779 773.976 157.412H771.976C771.976 160.025 770.48 162.579 767.762 163.688L768.518 165.54ZM773.976 157.412V155.488H771.976V157.412H773.976ZM773.366 156.488H775.056V154.488H773.366V156.488ZM774.056 155.488V157.386H776.056V155.488H774.056ZM774.056 157.386C774.056 160.516 775.935 163.567 779.234 164.892L779.979 163.036C777.454 162.021 776.056 159.716 776.056 157.386H774.056ZM778.772 163.412L777.654 165.102L779.322 166.206L780.44 164.516L778.772 163.412ZM778.872 164.731C775.939 163.512 774.366 160.657 774.366 157.386H772.366C772.366 161.291 774.278 164.988 778.105 166.577L778.872 164.731ZM774.366 157.386V155.488H772.366V157.386H774.366ZM768.66 155.5H779.164V153.5H768.66V155.5ZM778.164 154.5V156.268H780.164V154.5H778.164ZM779.164 155.268H768.66V157.268H779.164V155.268ZM769.66 156.268V154.5H767.66V156.268H769.66ZM785.846 153.55H787.9V151.55H785.846V153.55ZM786.9 152.55V166.746H788.9V152.55H786.9ZM787.9 165.746H785.846V167.746H787.9V165.746ZM786.846 166.746V152.55H784.846V166.746H786.846ZM782.05 159.712H786.496V157.712H782.05V159.712ZM785.496 158.712V160.48H787.496V158.712H785.496ZM786.496 159.48H782.05V161.48H786.496V159.48ZM783.05 160.48V158.712H781.05V160.48H783.05ZM780.854 153.966H782.882V151.966H780.854V153.966ZM781.882 152.966V166.642H783.882V152.966H781.882ZM782.882 165.642H780.854V167.642H782.882V165.642ZM781.854 166.642V152.966H779.854V166.642H781.854ZM772.144 169.02H787.9V167.02H772.144V169.02ZM786.9 168.02V176.028H788.9V168.02H786.9ZM787.9 175.028H785.768V177.028H787.9V175.028ZM786.768 176.028V169.788H784.768V176.028H786.768ZM785.768 168.788H772.144V170.788H785.768V168.788ZM773.144 169.788V168.02H771.144V169.788H773.144ZM804.486 155.982V154.982H803.486V155.982H804.486ZM809.764 155.982H810.764V154.982H809.764V155.982ZM809.764 157.776V158.776H810.764V157.776H809.764ZM804.486 157.776H803.486V158.776H804.486V157.776ZM804.486 160.818V159.818H803.486V160.818H804.486ZM809.764 160.818H810.764V159.818H809.764V160.818ZM809.764 162.586V163.586H810.764V162.586H809.764ZM804.486 162.586H803.486V163.586H804.486V162.586ZM797.908 153.85V152.85H796.908V153.85H797.908ZM799.65 153.85H800.65V152.85H799.65V153.85ZM793.202 166.954L792.37 167.509L792.822 168.186L793.577 167.881L793.202 166.954ZM792.058 165.238L791.699 164.305L790.534 164.754L791.226 165.793L792.058 165.238ZM798.298 153.85V152.85H797.298V153.85H798.298ZM800.066 153.85H801.066V152.85H800.066V153.85ZM805.734 164.874L806.551 165.452L807.285 164.414L806.103 163.945L805.734 164.874ZM804.538 166.564L804.152 167.486L804.891 167.797L805.355 167.142L804.538 166.564ZM809.192 152.55V151.55H808.192V152.55H809.192ZM811.35 152.55H812.35V151.55H811.35V152.55ZM811.35 170.074V171.074H812.35V170.074H811.35ZM809.192 170.074H808.192V171.074H809.192V170.074ZM796.244 173.74V172.74H795.244V173.74H796.244ZM811.922 173.74H812.922V172.74H811.922V173.74ZM811.922 175.508V176.508H812.922V175.508H811.922ZM796.244 175.508H795.244V176.508H796.244V175.508ZM796.244 168.306V167.306H795.244V168.306H796.244ZM798.402 168.306H799.402V167.306H798.402V168.306ZM798.402 174.702V175.702H799.402V174.702H798.402ZM796.244 174.702H795.244V175.702H796.244V174.702ZM804.486 156.982H809.764V154.982H804.486V156.982ZM808.764 155.982V157.776H810.764V155.982H808.764ZM809.764 156.776H804.486V158.776H809.764V156.776ZM805.486 157.776V155.982H803.486V157.776H805.486ZM804.486 161.818H809.764V159.818H804.486V161.818ZM808.764 160.818V162.586H810.764V160.818H808.764ZM809.764 161.586H804.486V163.586H809.764V161.586ZM805.486 162.586V160.818H803.486V162.586H805.486ZM797.908 154.85H799.65V152.85H797.908V154.85ZM798.65 153.85V156.84H800.65V153.85H798.65ZM798.65 156.84C798.65 161.075 796.339 164.608 792.828 166.027L793.577 167.881C797.917 166.128 800.65 161.809 800.65 156.84H798.65ZM794.034 166.399L792.89 164.683L791.226 165.793L792.37 167.509L794.034 166.399ZM792.418 166.171C796.303 164.675 798.908 160.957 798.908 156.84H796.908C796.908 160.107 794.834 163.097 791.699 164.305L792.418 166.171ZM798.908 156.84V153.85H796.908V156.84H798.908ZM798.298 154.85H800.066V152.85H798.298V154.85ZM799.066 153.85V156.84H801.066V153.85H799.066ZM799.066 156.84C799.066 160.708 801.603 164.31 805.365 165.803L806.103 163.945C803.054 162.734 801.066 159.836 801.066 156.84H799.066ZM804.918 164.296L803.722 165.986L805.355 167.142L806.551 165.452L804.918 164.296ZM804.925 165.642C801.596 164.245 799.298 160.824 799.298 156.84H797.298C797.298 161.592 800.045 165.763 804.152 167.486L804.925 165.642ZM799.298 156.84V153.85H797.298V156.84H799.298ZM809.192 153.55H811.35V151.55H809.192V153.55ZM810.35 152.55V170.074H812.35V152.55H810.35ZM811.35 169.074H809.192V171.074H811.35V169.074ZM810.192 170.074V152.55H808.192V170.074H810.192ZM796.244 174.74H811.922V172.74H796.244V174.74ZM810.922 173.74V175.508H812.922V173.74H810.922ZM811.922 174.508H796.244V176.508H811.922V174.508ZM797.244 175.508V173.74H795.244V175.508H797.244ZM796.244 169.306H798.402V167.306H796.244V169.306ZM797.402 168.306V174.702H799.402V168.306H797.402ZM798.402 173.702H796.244V175.702H798.402V173.702ZM797.244 174.702V168.306H795.244V174.702H797.244Z" fill="black" mask="url(#path-3-outside-1_0_1)"/>
  <rect x="0.5" y="261.5" width="181" height="314" rx="25.5" fill="#D9D9D9" stroke="#282828"/>
  <rect x="750.5" y="261.5" width="181" height="314" rx="25.5" fill="#D9D9D9" stroke="#282828"/>
  <rect x="7" y="268" width="168" height="301" rx="26" fill="url(#paint0_linear_0_1)"/>
  <rect x="757" y="268" width="168" height="301" rx="26" fill="url(#paint1_linear_0_1)"/>
  <path d="M841.407 50.579C840.623 49.8017 839.356 49.8078 838.579 50.5926L825.912 63.3812C825.135 64.166 825.141 65.4323 825.926 66.2096C826.71 66.9869 827.977 66.9809 828.754 66.1961L840.014 54.8284L851.381 66.0878C852.166 66.8651 853.432 66.8591 854.21 66.0743C854.987 65.2895 854.981 64.0232 854.196 63.2459L841.407 50.579ZM843 260.99L842 51.9904L838 52.0096L839 261.01L843 260.99Z" fill="#D52FFF"/>
  <path d="M841.407 50.579C840.623 49.8017 839.356 49.8078 838.579 50.5926L825.912 63.3812C825.135 64.166 825.141 65.4323 825.926 66.2096C826.71 66.9869 827.977 66.9809 828.754 66.1961L840.014 54.8284L851.381 66.0878C852.166 66.8651 853.432 66.8591 854.21 66.0743C854.987 65.2895 854.981 64.0232 854.196 63.2459L841.407 50.579ZM843 260.99L842 51.9904L838 52.0096L839 261.01L843 260.99Z" fill="black" fill-opacity="0.2"/>
  <path d="M746.414 420.414C747.195 419.633 747.195 418.367 746.414 417.586L733.686 404.858C732.905 404.077 731.639 404.077 730.858 404.858C730.077 405.639 730.077 406.905 730.858 407.686L742.172 419L730.858 430.314C730.077 431.095 730.077 432.361 730.858 433.142C731.639 433.923 732.905 433.923 733.686 433.142L746.414 420.414ZM182 421H745V417H182V421Z" fill="#99CFF6"/>
  <path d="M746.414 420.414C747.195 419.633 747.195 418.367 746.414 417.586L733.686 404.858C732.905 404.077 731.639 404.077 730.858 404.858C730.077 405.639 730.077 406.905 730.858 407.686L742.172 419L730.858 430.314C730.077 431.095 730.077 432.361 730.858 433.142C731.639 433.923 732.905 433.923 733.686 433.142L746.414 420.414ZM182 421H745V417H182V421Z" fill="black" fill-opacity="0.2"/>
  <rect x="16" y="344" width="21" height="21" fill="#D9D9D9"/>
  <rect x="16" y="473" width="21" height="21" fill="#D9D9D9"/>
  <rect x="16" y="441" width="21" height="20" fill="#D9D9D9"/>
  <rect x="145" y="441" width="21" height="20" fill="#D9D9D9"/>
  <rect x="49" y="344" width="20" height="21" fill="#D9D9D9"/>
  <rect x="49" y="473" width="20" height="21" fill="#D9D9D9"/>
  <rect x="114" y="409" width="20" height="20" fill="#D9D9D9"/>
  <rect x="81" y="344" width="20" height="21" fill="#D9D9D9"/>
  <rect x="81" y="473" width="20" height="21" fill="#D9D9D9"/>
  <rect x="114" y="441" width="20" height="20" fill="#D9D9D9"/>
  <rect x="16" y="376" width="21" height="20" fill="#D9D9D9"/>
  <rect x="49" y="376" width="20" height="20" fill="#D9D9D9"/>
  <rect x="49" y="441" width="20" height="20" fill="#D9D9D9"/>
  <rect x="114" y="344" width="20" height="21" fill="#D9D9D9"/>
  <rect x="114" y="473" width="20" height="21" fill="#D9D9D9"/>
  <rect x="145" y="344" width="21" height="21" fill="#D9D9D9"/>
  <rect x="145" y="473" width="21" height="21" fill="#D9D9D9"/>
  <rect x="81" y="376" width="20" height="20" fill="#D9D9D9"/>
  <rect x="145" y="376" width="21" height="20" fill="#D9D9D9"/>
  <rect x="114" y="376" width="20" height="20" fill="#D9D9D9"/>
  <rect x="81" y="409" width="20" height="20" fill="#D9D9D9"/>
  <rect x="81" y="441" width="20" height="20" fill="#D9D9D9"/>
  <rect x="49" y="409" width="20" height="20" fill="#D9D9D9"/>
  <rect x="145" y="409" width="21" height="20" fill="#D9D9D9"/>
  <rect x="16" y="409" width="21" height="20" fill="#D9D9D9"/>
  <rect x="21" y="349" width="11" height="11" fill="black"/>
  <rect x="21" y="478" width="11" height="11" fill="black"/>
  <rect x="21" y="445" width="11" height="11" fill="black"/>
  <rect x="150" y="445" width="11" height="11" fill="black"/>
  <rect x="55" y="351" width="10" height="9" fill="black"/>
  <rect x="55" y="480" width="10" height="9" fill="black"/>
  <rect x="120" y="415" width="9" height="10" fill="black"/>
  <rect x="51" y="353" width="9" height="10" fill="black"/>
  <rect x="51" y="483" width="9" height="8" fill="black"/>
  <rect x="122" y="411" width="9" height="9" fill="black"/>
  <rect x="51" y="346" width="9" height="9" fill="black"/>
  <rect x="51" y="475" width="9" height="10" fill="black"/>
  <rect x="115" y="411" width="10" height="9" fill="black"/>
  <rect x="92" y="349" width="5" height="4" fill="black"/>
  <rect x="92" y="478" width="5" height="5" fill="black"/>
  <rect x="125" y="445" width="4" height="5" fill="black"/>
  <rect x="84" y="358" width="3" height="5" fill="black"/>
  <rect x="84" y="486" width="3" height="5" fill="black"/>
  <rect x="115" y="455" width="5" height="4" fill="black"/>
  <rect x="90" y="355" width="5" height="5" fill="black"/>
  <rect x="90" y="485" width="5" height="4" fill="black"/>
  <rect x="122" y="453" width="5" height="3" fill="black"/>
  <rect x="85" y="346" width="5" height="5" fill="black"/>
  <rect x="85" y="475" width="5" height="5" fill="black"/>
  <rect x="117" y="443" width="5" height="5" fill="black"/>
  <rect x="24" y="379" width="11" height="11" fill="black"/>
  <rect x="19" y="383" width="11" height="12" fill="black"/>
  <rect x="57" y="379" width="10" height="9" fill="black"/>
  <rect x="57" y="443" width="10" height="10" fill="black"/>
  <rect x="125" y="344" width="9" height="9" fill="black"/>
  <rect x="125" y="473" width="9" height="10" fill="black"/>
  <rect x="157" y="344" width="9" height="9" fill="black"/>
  <rect x="157" y="473" width="9" height="10" fill="black"/>
  <rect x="49" y="388" width="8" height="8" fill="black"/>
  <rect x="49" y="453" width="8" height="8" fill="black"/>
  <rect x="115" y="353" width="10" height="10" fill="black"/>
  <rect x="115" y="483" width="10" height="8" fill="black"/>
  <rect x="147" y="353" width="10" height="10" fill="black"/>
  <rect x="147" y="483" width="10" height="8" fill="black"/>
  <rect x="84" y="379" width="6" height="6" fill="black"/>
  <rect x="147" y="379" width="8" height="6" fill="black"/>
  <rect x="115" y="379" width="7" height="6" fill="black"/>
  <rect x="92" y="388" width="7" height="7" fill="black"/>
  <rect x="157" y="388" width="7" height="7" fill="black"/>
  <rect x="125" y="388" width="6" height="7" fill="black"/>
  <rect x="84" y="388" width="6" height="7" fill="black"/>
  <rect x="147" y="388" width="8" height="7" fill="black"/>
  <rect x="125" y="379" width="6" height="6" fill="black"/>
  <rect x="85" y="413" width="12" height="12" fill="black"/>
  <rect x="85" y="445" width="12" height="11" fill="black"/>
  <rect x="57" y="409" width="12" height="11" fill="black"/>
  <rect x="155" y="409" width="11" height="11" fill="black"/>
  <rect x="49" y="411" width="11" height="12" fill="black"/>
  <rect x="145" y="411" width="12" height="12" fill="black"/>
  <rect x="54" y="418" width="11" height="11" fill="black"/>
  <rect x="150" y="418" width="11" height="11" fill="black"/>
  <rect x="19" y="415" width="11" height="10" fill="black"/>
  <rect x="30" y="415" width="7" height="8" fill="black"/>
  <rect x="784.5" y="392.5" width="108" height="53" rx="23.5" fill="#306E26" stroke="#C1C1C1" stroke-width="3"/>
  <path d="M809.29 410.091H812.023L818.449 425.787H818.67L825.097 410.091H827.83V429H825.688V414.634H825.503L819.594 429H817.526L811.616 414.634H811.432V429H809.29V410.091ZM834.71 410.091V429H832.421V410.091H834.71ZM854.296 410.091V429H852.08L841.776 414.153H841.591V429H839.301V410.091H841.517L851.858 424.974H852.043V410.091H854.296ZM857.844 412.122V410.091H872.025V412.122H866.079V429H863.79V412.122H857.844Z" fill="white"/>
  <defs>
    <linearGradient id="paint0_linear_0_1" x1="21" y1="276.303" x2="169.552" y2="564.594" gradientUnits="userSpaceOnUse">
      <stop stop-color="#C06F6F"/>
      <stop offset="1" stop-color="#4A0A0A"/>
    </linearGradient>
    <linearGradient id="paint1_linear_0_1" x1="771" y1="276.303" x2="919.552" y2="564.594" gradientUnits="userSpaceOnUse">
      <stop stop-color="#8BD289"/>
      <stop offset="0.890625" stop-color="#0A4A4A"/>
    </linearGradient>
  </defs>
</svg>
